<mxfile host="65bd71144e">
    <diagram id="sQsboQRhL1_tpvNvtr-W" name="Страница 1">
        <mxGraphModel dx="2394" dy="874" grid="1" gridSize="10" guides="1" tooltips="1" connect="1" arrows="1" fold="1" page="1" pageScale="1" pageWidth="827" pageHeight="1169" math="0" shadow="0">
            <root>
                <mxCell id="0"/>
                <mxCell id="1" parent="0"/>
                <mxCell id="2" value="График" style="shape=table;startSize=30;container=1;collapsible=0;childLayout=tableLayout;fontStyle=1;align=center;strokeColor=#000000;" vertex="1" parent="1">
                    <mxGeometry x="60" y="1010" width="570" height="364" as="geometry"/>
                </mxCell>
                <mxCell id="3" value="" style="shape=tableRow;horizontal=0;startSize=0;swimlaneHead=0;swimlaneBody=0;top=0;left=0;bottom=0;right=0;collapsible=0;dropTarget=0;fillColor=none;points=[[0,0.5],[1,0.5]];portConstraint=eastwest;strokeColor=#000000;" vertex="1" parent="2">
                    <mxGeometry y="30" width="570" height="48" as="geometry"/>
                </mxCell>
                <mxCell id="4" value="№" style="shape=partialRectangle;html=1;whiteSpace=wrap;connectable=0;fillColor=none;top=0;left=0;bottom=0;right=0;overflow=hidden;strokeColor=#000000;" vertex="1" parent="3">
                    <mxGeometry width="54" height="48" as="geometry">
                        <mxRectangle width="54" height="48" as="alternateBounds"/>
                    </mxGeometry>
                </mxCell>
                <mxCell id="5" value="Наименование" style="shape=partialRectangle;html=1;whiteSpace=wrap;connectable=0;fillColor=none;top=0;left=0;bottom=0;right=0;overflow=hidden;strokeColor=#000000;" vertex="1" parent="3">
                    <mxGeometry x="54" width="177" height="48" as="geometry">
                        <mxRectangle width="177" height="48" as="alternateBounds"/>
                    </mxGeometry>
                </mxCell>
                <mxCell id="6" value="Описание" style="shape=partialRectangle;html=1;whiteSpace=wrap;connectable=0;fillColor=none;top=0;left=0;bottom=0;right=0;overflow=hidden;strokeColor=#000000;" vertex="1" parent="3">
                    <mxGeometry x="231" width="113" height="48" as="geometry">
                        <mxRectangle width="113" height="48" as="alternateBounds"/>
                    </mxGeometry>
                </mxCell>
                <mxCell id="7" value="Старое наименование" style="shape=partialRectangle;html=1;whiteSpace=wrap;connectable=0;fillColor=none;top=0;left=0;bottom=0;right=0;overflow=hidden;strokeColor=#000000;" vertex="1" parent="3">
                    <mxGeometry x="344" width="113" height="48" as="geometry">
                        <mxRectangle width="113" height="48" as="alternateBounds"/>
                    </mxGeometry>
                </mxCell>
                <mxCell id="8" style="shape=partialRectangle;html=1;whiteSpace=wrap;connectable=0;fillColor=none;top=0;left=0;bottom=0;right=0;overflow=hidden;strokeColor=#000000;" vertex="1" parent="3">
                    <mxGeometry x="457" width="113" height="48" as="geometry">
                        <mxRectangle width="113" height="48" as="alternateBounds"/>
                    </mxGeometry>
                </mxCell>
                <mxCell id="9" value="" style="shape=tableRow;horizontal=0;startSize=0;swimlaneHead=0;swimlaneBody=0;top=0;left=0;bottom=0;right=0;collapsible=0;dropTarget=0;fillColor=none;points=[[0,0.5],[1,0.5]];portConstraint=eastwest;strokeColor=#000000;" vertex="1" parent="2">
                    <mxGeometry y="78" width="570" height="48" as="geometry"/>
                </mxCell>
                <mxCell id="10" value="1" style="shape=partialRectangle;html=1;whiteSpace=wrap;connectable=0;fillColor=none;top=0;left=0;bottom=0;right=0;overflow=hidden;strokeColor=#000000;" vertex="1" parent="9">
                    <mxGeometry width="54" height="48" as="geometry">
                        <mxRectangle width="54" height="48" as="alternateBounds"/>
                    </mxGeometry>
                </mxCell>
                <mxCell id="11" value="" style="shape=partialRectangle;html=1;whiteSpace=wrap;connectable=0;fillColor=none;top=0;left=0;bottom=0;right=0;overflow=hidden;strokeColor=#000000;" vertex="1" parent="9">
                    <mxGeometry x="54" width="177" height="48" as="geometry">
                        <mxRectangle width="177" height="48" as="alternateBounds"/>
                    </mxGeometry>
                </mxCell>
                <mxCell id="12" value="Наш продукт на графике" style="shape=partialRectangle;html=1;whiteSpace=wrap;connectable=0;fillColor=none;top=0;left=0;bottom=0;right=0;overflow=hidden;strokeColor=#000000;" vertex="1" parent="9">
                    <mxGeometry x="231" width="113" height="48" as="geometry">
                        <mxRectangle width="113" height="48" as="alternateBounds"/>
                    </mxGeometry>
                </mxCell>
                <mxCell id="13" value="&lt;span style=&quot;color: rgb(121, 38, 117); font-family: consolas, &amp;quot;lucida console&amp;quot;, &amp;quot;courier new&amp;quot;, monospace; text-align: left;&quot;&gt;campaignPlace&lt;/span&gt;" style="shape=partialRectangle;html=1;whiteSpace=wrap;connectable=0;fillColor=none;top=0;left=0;bottom=0;right=0;overflow=hidden;strokeColor=#000000;" vertex="1" parent="9">
                    <mxGeometry x="344" width="113" height="48" as="geometry">
                        <mxRectangle width="113" height="48" as="alternateBounds"/>
                    </mxGeometry>
                </mxCell>
                <mxCell id="14" value="&lt;div style=&quot;text-align: justify;&quot;&gt;&lt;br&gt;&lt;/div&gt;" style="shape=partialRectangle;html=1;whiteSpace=wrap;connectable=0;fillColor=none;top=0;left=0;bottom=0;right=0;overflow=hidden;strokeColor=#000000;" vertex="1" parent="9">
                    <mxGeometry x="457" width="113" height="48" as="geometry">
                        <mxRectangle width="113" height="48" as="alternateBounds"/>
                    </mxGeometry>
                </mxCell>
                <mxCell id="15" value="" style="shape=tableRow;horizontal=0;startSize=0;swimlaneHead=0;swimlaneBody=0;top=0;left=0;bottom=0;right=0;collapsible=0;dropTarget=0;fillColor=none;points=[[0,0.5],[1,0.5]];portConstraint=eastwest;strokeColor=#000000;" vertex="1" parent="2">
                    <mxGeometry y="126" width="570" height="47" as="geometry"/>
                </mxCell>
                <mxCell id="16" value="2" style="shape=partialRectangle;html=1;whiteSpace=wrap;connectable=0;fillColor=none;top=0;left=0;bottom=0;right=0;overflow=hidden;strokeColor=#000000;" vertex="1" parent="15">
                    <mxGeometry width="54" height="47" as="geometry">
                        <mxRectangle width="54" height="47" as="alternateBounds"/>
                    </mxGeometry>
                </mxCell>
                <mxCell id="17" value="" style="shape=partialRectangle;html=1;whiteSpace=wrap;connectable=0;fillColor=none;top=0;left=0;bottom=0;right=0;overflow=hidden;strokeColor=#000000;" vertex="1" parent="15">
                    <mxGeometry x="54" width="177" height="47" as="geometry">
                        <mxRectangle width="177" height="47" as="alternateBounds"/>
                    </mxGeometry>
                </mxCell>
                <mxCell id="18" value="Рекомендаций как попасть в график" style="shape=partialRectangle;html=1;whiteSpace=wrap;connectable=0;fillColor=none;top=0;left=0;bottom=0;right=0;overflow=hidden;strokeColor=#000000;" vertex="1" parent="15">
                    <mxGeometry x="231" width="113" height="47" as="geometry">
                        <mxRectangle width="113" height="47" as="alternateBounds"/>
                    </mxGeometry>
                </mxCell>
                <mxCell id="19" value="&lt;span style=&quot;color: rgb(121, 38, 117); font-family: consolas, &amp;quot;lucida console&amp;quot;, &amp;quot;courier new&amp;quot;, monospace; text-align: left;&quot;&gt;hints&lt;/span&gt;" style="shape=partialRectangle;html=1;whiteSpace=wrap;connectable=0;fillColor=none;top=0;left=0;bottom=0;right=0;overflow=hidden;strokeColor=#000000;" vertex="1" parent="15">
                    <mxGeometry x="344" width="113" height="47" as="geometry">
                        <mxRectangle width="113" height="47" as="alternateBounds"/>
                    </mxGeometry>
                </mxCell>
                <mxCell id="20" value="&lt;div style=&quot;text-align: justify;&quot;&gt;&lt;br&gt;&lt;/div&gt;" style="shape=partialRectangle;html=1;whiteSpace=wrap;connectable=0;fillColor=none;top=0;left=0;bottom=0;right=0;overflow=hidden;strokeColor=#000000;" vertex="1" parent="15">
                    <mxGeometry x="457" width="113" height="47" as="geometry">
                        <mxRectangle width="113" height="47" as="alternateBounds"/>
                    </mxGeometry>
                </mxCell>
                <mxCell id="21" style="shape=tableRow;horizontal=0;startSize=0;swimlaneHead=0;swimlaneBody=0;top=0;left=0;bottom=0;right=0;collapsible=0;dropTarget=0;fillColor=none;points=[[0,0.5],[1,0.5]];portConstraint=eastwest;strokeColor=#000000;" vertex="1" parent="2">
                    <mxGeometry y="173" width="570" height="48" as="geometry"/>
                </mxCell>
                <mxCell id="22" value="3" style="shape=partialRectangle;html=1;whiteSpace=wrap;connectable=0;fillColor=none;top=0;left=0;bottom=0;right=0;overflow=hidden;strokeColor=#000000;" vertex="1" parent="21">
                    <mxGeometry width="54" height="48" as="geometry">
                        <mxRectangle width="54" height="48" as="alternateBounds"/>
                    </mxGeometry>
                </mxCell>
                <mxCell id="23" value="" style="shape=partialRectangle;html=1;whiteSpace=wrap;connectable=0;fillColor=none;top=0;left=0;bottom=0;right=0;overflow=hidden;strokeColor=#000000;" vertex="1" parent="21">
                    <mxGeometry x="54" width="177" height="48" as="geometry">
                        <mxRectangle width="177" height="48" as="alternateBounds"/>
                    </mxGeometry>
                </mxCell>
                <mxCell id="24" value="Позиций товаров на графики (макс 50)" style="shape=partialRectangle;html=1;whiteSpace=wrap;connectable=0;fillColor=none;top=0;left=0;bottom=0;right=0;overflow=hidden;strokeColor=#000000;" vertex="1" parent="21">
                    <mxGeometry x="231" width="113" height="48" as="geometry">
                        <mxRectangle width="113" height="48" as="alternateBounds"/>
                    </mxGeometry>
                </mxCell>
                <mxCell id="25" value="&lt;span style=&quot;color: rgb(121, 38, 117); font-family: consolas, &amp;quot;lucida console&amp;quot;, &amp;quot;courier new&amp;quot;, monospace; text-align: left;&quot;&gt;pages&lt;/span&gt;" style="shape=partialRectangle;html=1;whiteSpace=wrap;connectable=0;fillColor=none;top=0;left=0;bottom=0;right=0;overflow=hidden;strokeColor=#000000;" vertex="1" parent="21">
                    <mxGeometry x="344" width="113" height="48" as="geometry">
                        <mxRectangle width="113" height="48" as="alternateBounds"/>
                    </mxGeometry>
                </mxCell>
                <mxCell id="26" value="&lt;div style=&quot;text-align: justify;&quot;&gt;&lt;br&gt;&lt;/div&gt;" style="shape=partialRectangle;html=1;whiteSpace=wrap;connectable=0;fillColor=none;top=0;left=0;bottom=0;right=0;overflow=hidden;strokeColor=#000000;" vertex="1" parent="21">
                    <mxGeometry x="457" width="113" height="48" as="geometry">
                        <mxRectangle width="113" height="48" as="alternateBounds"/>
                    </mxGeometry>
                </mxCell>
                <mxCell id="27" style="shape=tableRow;horizontal=0;startSize=0;swimlaneHead=0;swimlaneBody=0;top=0;left=0;bottom=0;right=0;collapsible=0;dropTarget=0;fillColor=none;points=[[0,0.5],[1,0.5]];portConstraint=eastwest;strokeColor=#000000;" vertex="1" parent="2">
                    <mxGeometry y="221" width="570" height="48" as="geometry"/>
                </mxCell>
                <mxCell id="28" value="4" style="shape=partialRectangle;html=1;whiteSpace=wrap;connectable=0;fillColor=none;top=0;left=0;bottom=0;right=0;overflow=hidden;strokeColor=#000000;" vertex="1" parent="27">
                    <mxGeometry width="54" height="48" as="geometry">
                        <mxRectangle width="54" height="48" as="alternateBounds"/>
                    </mxGeometry>
                </mxCell>
                <mxCell id="29" value="" style="shape=partialRectangle;html=1;whiteSpace=wrap;connectable=0;fillColor=none;top=0;left=0;bottom=0;right=0;overflow=hidden;strokeColor=#000000;" vertex="1" parent="27">
                    <mxGeometry x="54" width="177" height="48" as="geometry">
                        <mxRectangle width="177" height="48" as="alternateBounds"/>
                    </mxGeometry>
                </mxCell>
                <mxCell id="30" value="Список предметов по приоритетам" style="shape=partialRectangle;html=1;whiteSpace=wrap;connectable=0;fillColor=none;top=0;left=0;bottom=0;right=0;overflow=hidden;strokeColor=#000000;" vertex="1" parent="27">
                    <mxGeometry x="231" width="113" height="48" as="geometry">
                        <mxRectangle width="113" height="48" as="alternateBounds"/>
                    </mxGeometry>
                </mxCell>
                <mxCell id="31" value="&lt;span style=&quot;color: rgb(121, 38, 117); font-family: consolas, &amp;quot;lucida console&amp;quot;, &amp;quot;courier new&amp;quot;, monospace; text-align: left;&quot;&gt;prioritySubjects&lt;/span&gt;" style="shape=partialRectangle;html=1;whiteSpace=wrap;connectable=0;fillColor=none;top=0;left=0;bottom=0;right=0;overflow=hidden;strokeColor=#000000;" vertex="1" parent="27">
                    <mxGeometry x="344" width="113" height="48" as="geometry">
                        <mxRectangle width="113" height="48" as="alternateBounds"/>
                    </mxGeometry>
                </mxCell>
                <mxCell id="32" value="" style="shape=partialRectangle;html=1;whiteSpace=wrap;connectable=0;fillColor=none;top=0;left=0;bottom=0;right=0;overflow=hidden;strokeColor=#000000;" vertex="1" parent="27">
                    <mxGeometry x="457" width="113" height="48" as="geometry">
                        <mxRectangle width="113" height="48" as="alternateBounds"/>
                    </mxGeometry>
                </mxCell>
                <mxCell id="33" style="shape=tableRow;horizontal=0;startSize=0;swimlaneHead=0;swimlaneBody=0;top=0;left=0;bottom=0;right=0;collapsible=0;dropTarget=0;fillColor=none;points=[[0,0.5],[1,0.5]];portConstraint=eastwest;strokeColor=#000000;" vertex="1" parent="2">
                    <mxGeometry y="269" width="570" height="48" as="geometry"/>
                </mxCell>
                <mxCell id="34" value="6" style="shape=partialRectangle;html=1;whiteSpace=wrap;connectable=0;fillColor=none;top=0;left=0;bottom=0;right=0;overflow=hidden;strokeColor=#000000;" vertex="1" parent="33">
                    <mxGeometry width="54" height="48" as="geometry">
                        <mxRectangle width="54" height="48" as="alternateBounds"/>
                    </mxGeometry>
                </mxCell>
                <mxCell id="35" value="" style="shape=partialRectangle;html=1;whiteSpace=wrap;connectable=0;fillColor=none;top=0;left=0;bottom=0;right=0;overflow=hidden;strokeColor=#000000;" vertex="1" parent="33">
                    <mxGeometry x="54" width="177" height="48" as="geometry">
                        <mxRectangle width="177" height="48" as="alternateBounds"/>
                    </mxGeometry>
                </mxCell>
                <mxCell id="36" value="Позиций товаров не попавших на график" style="shape=partialRectangle;html=1;whiteSpace=wrap;connectable=0;fillColor=none;top=0;left=0;bottom=0;right=0;overflow=hidden;strokeColor=#000000;" vertex="1" parent="33">
                    <mxGeometry x="231" width="113" height="48" as="geometry">
                        <mxRectangle width="113" height="48" as="alternateBounds"/>
                    </mxGeometry>
                </mxCell>
                <mxCell id="37" value="&lt;span style=&quot;color: rgb(121, 38, 117); font-family: consolas, &amp;quot;lucida console&amp;quot;, &amp;quot;courier new&amp;quot;, monospace; text-align: left;&quot;&gt;unfiltered&lt;/span&gt;" style="shape=partialRectangle;html=1;whiteSpace=wrap;connectable=0;fillColor=none;top=0;left=0;bottom=0;right=0;overflow=hidden;strokeColor=#000000;" vertex="1" parent="33">
                    <mxGeometry x="344" width="113" height="48" as="geometry">
                        <mxRectangle width="113" height="48" as="alternateBounds"/>
                    </mxGeometry>
                </mxCell>
                <mxCell id="38" style="shape=partialRectangle;html=1;whiteSpace=wrap;connectable=0;fillColor=none;top=0;left=0;bottom=0;right=0;overflow=hidden;strokeColor=#000000;" vertex="1" parent="33">
                    <mxGeometry x="457" width="113" height="48" as="geometry">
                        <mxRectangle width="113" height="48" as="alternateBounds"/>
                    </mxGeometry>
                </mxCell>
                <mxCell id="39" style="shape=tableRow;horizontal=0;startSize=0;swimlaneHead=0;swimlaneBody=0;top=0;left=0;bottom=0;right=0;collapsible=0;dropTarget=0;fillColor=none;points=[[0,0.5],[1,0.5]];portConstraint=eastwest;strokeColor=#000000;" vertex="1" parent="2">
                    <mxGeometry y="317" width="570" height="47" as="geometry"/>
                </mxCell>
                <mxCell id="40" value="7" style="shape=partialRectangle;html=1;whiteSpace=wrap;connectable=0;fillColor=none;top=0;left=0;bottom=0;right=0;overflow=hidden;strokeColor=#000000;" vertex="1" parent="39">
                    <mxGeometry width="54" height="47" as="geometry">
                        <mxRectangle width="54" height="47" as="alternateBounds"/>
                    </mxGeometry>
                </mxCell>
                <mxCell id="41" value="" style="shape=partialRectangle;html=1;whiteSpace=wrap;connectable=0;fillColor=none;top=0;left=0;bottom=0;right=0;overflow=hidden;strokeColor=#000000;" vertex="1" parent="39">
                    <mxGeometry x="54" width="177" height="47" as="geometry">
                        <mxRectangle width="177" height="47" as="alternateBounds"/>
                    </mxGeometry>
                </mxCell>
                <mxCell id="42" value="Статус&amp;nbsp;" style="shape=partialRectangle;html=1;whiteSpace=wrap;connectable=0;fillColor=none;top=0;left=0;bottom=0;right=0;overflow=hidden;strokeColor=#000000;" vertex="1" parent="39">
                    <mxGeometry x="231" width="113" height="47" as="geometry">
                        <mxRectangle width="113" height="47" as="alternateBounds"/>
                    </mxGeometry>
                </mxCell>
                <mxCell id="43" value="&lt;span style=&quot;color: rgb(121, 38, 117); font-family: consolas, &amp;quot;lucida console&amp;quot;, &amp;quot;courier new&amp;quot;, monospace; text-align: left;&quot;&gt;success&lt;/span&gt;" style="shape=partialRectangle;html=1;whiteSpace=wrap;connectable=0;fillColor=none;top=0;left=0;bottom=0;right=0;overflow=hidden;strokeColor=#000000;" vertex="1" parent="39">
                    <mxGeometry x="344" width="113" height="47" as="geometry">
                        <mxRectangle width="113" height="47" as="alternateBounds"/>
                    </mxGeometry>
                </mxCell>
                <mxCell id="44" style="shape=partialRectangle;html=1;whiteSpace=wrap;connectable=0;fillColor=none;top=0;left=0;bottom=0;right=0;overflow=hidden;strokeColor=#000000;" vertex="1" parent="39">
                    <mxGeometry x="457" width="113" height="47" as="geometry">
                        <mxRectangle width="113" height="47" as="alternateBounds"/>
                    </mxGeometry>
                </mxCell>
                <mxCell id="57" value="https://api.marpla.group/adverts/adverts?keyword=куртка+женская+весна+кожаная&amp;amp;article=144702027&amp;amp;campaignId=5029809" style="text;html=1;align=center;verticalAlign=middle;resizable=0;points=[];autosize=1;strokeColor=none;fillColor=none;" vertex="1" parent="1">
                    <mxGeometry x="10" y="970" width="710" height="30" as="geometry"/>
                </mxCell>
                <mxCell id="59" value="hints" style="shape=table;startSize=30;container=1;collapsible=0;childLayout=tableLayout;fontStyle=1;align=center;strokeColor=#000000;" vertex="1" parent="1">
                    <mxGeometry x="-380" y="1460" width="570" height="221" as="geometry"/>
                </mxCell>
                <mxCell id="60" value="" style="shape=tableRow;horizontal=0;startSize=0;swimlaneHead=0;swimlaneBody=0;top=0;left=0;bottom=0;right=0;collapsible=0;dropTarget=0;fillColor=none;points=[[0,0.5],[1,0.5]];portConstraint=eastwest;strokeColor=#000000;" vertex="1" parent="59">
                    <mxGeometry y="30" width="570" height="48" as="geometry"/>
                </mxCell>
                <mxCell id="61" value="№" style="shape=partialRectangle;html=1;whiteSpace=wrap;connectable=0;fillColor=none;top=0;left=0;bottom=0;right=0;overflow=hidden;strokeColor=#000000;" vertex="1" parent="60">
                    <mxGeometry width="54" height="48" as="geometry">
                        <mxRectangle width="54" height="48" as="alternateBounds"/>
                    </mxGeometry>
                </mxCell>
                <mxCell id="62" value="Наименование" style="shape=partialRectangle;html=1;whiteSpace=wrap;connectable=0;fillColor=none;top=0;left=0;bottom=0;right=0;overflow=hidden;strokeColor=#000000;" vertex="1" parent="60">
                    <mxGeometry x="54" width="177" height="48" as="geometry">
                        <mxRectangle width="177" height="48" as="alternateBounds"/>
                    </mxGeometry>
                </mxCell>
                <mxCell id="63" value="Описание" style="shape=partialRectangle;html=1;whiteSpace=wrap;connectable=0;fillColor=none;top=0;left=0;bottom=0;right=0;overflow=hidden;strokeColor=#000000;" vertex="1" parent="60">
                    <mxGeometry x="231" width="113" height="48" as="geometry">
                        <mxRectangle width="113" height="48" as="alternateBounds"/>
                    </mxGeometry>
                </mxCell>
                <mxCell id="64" value="Старое наименование" style="shape=partialRectangle;html=1;whiteSpace=wrap;connectable=0;fillColor=none;top=0;left=0;bottom=0;right=0;overflow=hidden;strokeColor=#000000;" vertex="1" parent="60">
                    <mxGeometry x="344" width="113" height="48" as="geometry">
                        <mxRectangle width="113" height="48" as="alternateBounds"/>
                    </mxGeometry>
                </mxCell>
                <mxCell id="65" style="shape=partialRectangle;html=1;whiteSpace=wrap;connectable=0;fillColor=none;top=0;left=0;bottom=0;right=0;overflow=hidden;strokeColor=#000000;" vertex="1" parent="60">
                    <mxGeometry x="457" width="113" height="48" as="geometry">
                        <mxRectangle width="113" height="48" as="alternateBounds"/>
                    </mxGeometry>
                </mxCell>
                <mxCell id="66" value="" style="shape=tableRow;horizontal=0;startSize=0;swimlaneHead=0;swimlaneBody=0;top=0;left=0;bottom=0;right=0;collapsible=0;dropTarget=0;fillColor=none;points=[[0,0.5],[1,0.5]];portConstraint=eastwest;strokeColor=#000000;" vertex="1" parent="59">
                    <mxGeometry y="78" width="570" height="48" as="geometry"/>
                </mxCell>
                <mxCell id="67" value="1" style="shape=partialRectangle;html=1;whiteSpace=wrap;connectable=0;fillColor=none;top=0;left=0;bottom=0;right=0;overflow=hidden;strokeColor=#000000;" vertex="1" parent="66">
                    <mxGeometry width="54" height="48" as="geometry">
                        <mxRectangle width="54" height="48" as="alternateBounds"/>
                    </mxGeometry>
                </mxCell>
                <mxCell id="68" value="" style="shape=partialRectangle;html=1;whiteSpace=wrap;connectable=0;fillColor=none;top=0;left=0;bottom=0;right=0;overflow=hidden;strokeColor=#000000;" vertex="1" parent="66">
                    <mxGeometry x="54" width="177" height="48" as="geometry">
                        <mxRectangle width="177" height="48" as="alternateBounds"/>
                    </mxGeometry>
                </mxCell>
                <mxCell id="69" value="Попал ли товар в график" style="shape=partialRectangle;html=1;whiteSpace=wrap;connectable=0;fillColor=none;top=0;left=0;bottom=0;right=0;overflow=hidden;strokeColor=#000000;" vertex="1" parent="66">
                    <mxGeometry x="231" width="113" height="48" as="geometry">
                        <mxRectangle width="113" height="48" as="alternateBounds"/>
                    </mxGeometry>
                </mxCell>
                <mxCell id="70" value="&lt;span style=&quot;color: rgb(121, 38, 117); font-family: consolas, &amp;quot;lucida console&amp;quot;, &amp;quot;courier new&amp;quot;, monospace; text-align: left;&quot;&gt;byPriority&lt;/span&gt;" style="shape=partialRectangle;html=1;whiteSpace=wrap;connectable=0;fillColor=none;top=0;left=0;bottom=0;right=0;overflow=hidden;strokeColor=#000000;" vertex="1" parent="66">
                    <mxGeometry x="344" width="113" height="48" as="geometry">
                        <mxRectangle width="113" height="48" as="alternateBounds"/>
                    </mxGeometry>
                </mxCell>
                <mxCell id="71" value="&lt;div style=&quot;text-align: justify;&quot;&gt;&lt;br&gt;&lt;/div&gt;" style="shape=partialRectangle;html=1;whiteSpace=wrap;connectable=0;fillColor=none;top=0;left=0;bottom=0;right=0;overflow=hidden;strokeColor=#000000;" vertex="1" parent="66">
                    <mxGeometry x="457" width="113" height="48" as="geometry">
                        <mxRectangle width="113" height="48" as="alternateBounds"/>
                    </mxGeometry>
                </mxCell>
                <mxCell id="72" value="" style="shape=tableRow;horizontal=0;startSize=0;swimlaneHead=0;swimlaneBody=0;top=0;left=0;bottom=0;right=0;collapsible=0;dropTarget=0;fillColor=none;points=[[0,0.5],[1,0.5]];portConstraint=eastwest;strokeColor=#000000;" vertex="1" parent="59">
                    <mxGeometry y="126" width="570" height="47" as="geometry"/>
                </mxCell>
                <mxCell id="73" value="2" style="shape=partialRectangle;html=1;whiteSpace=wrap;connectable=0;fillColor=none;top=0;left=0;bottom=0;right=0;overflow=hidden;strokeColor=#000000;" vertex="1" parent="72">
                    <mxGeometry width="54" height="47" as="geometry">
                        <mxRectangle width="54" height="47" as="alternateBounds"/>
                    </mxGeometry>
                </mxCell>
                <mxCell id="74" value="" style="shape=partialRectangle;html=1;whiteSpace=wrap;connectable=0;fillColor=none;top=0;left=0;bottom=0;right=0;overflow=hidden;strokeColor=#000000;" vertex="1" parent="72">
                    <mxGeometry x="54" width="177" height="47" as="geometry">
                        <mxRectangle width="177" height="47" as="alternateBounds"/>
                    </mxGeometry>
                </mxCell>
                <mxCell id="75" value="Рекомендация на сколько надо изменить доставку" style="shape=partialRectangle;html=1;whiteSpace=wrap;connectable=0;fillColor=none;top=0;left=0;bottom=0;right=0;overflow=hidden;strokeColor=#000000;" vertex="1" parent="72">
                    <mxGeometry x="231" width="113" height="47" as="geometry">
                        <mxRectangle width="113" height="47" as="alternateBounds"/>
                    </mxGeometry>
                </mxCell>
                <mxCell id="76" value="&lt;span style=&quot;color: rgb(121, 38, 117); font-family: consolas, &amp;quot;lucida console&amp;quot;, &amp;quot;courier new&amp;quot;, monospace; text-align: left;&quot;&gt;deliveryTime&lt;/span&gt;" style="shape=partialRectangle;html=1;whiteSpace=wrap;connectable=0;fillColor=none;top=0;left=0;bottom=0;right=0;overflow=hidden;strokeColor=#000000;" vertex="1" parent="72">
                    <mxGeometry x="344" width="113" height="47" as="geometry">
                        <mxRectangle width="113" height="47" as="alternateBounds"/>
                    </mxGeometry>
                </mxCell>
                <mxCell id="77" value="&lt;div style=&quot;text-align: justify;&quot;&gt;&lt;br&gt;&lt;/div&gt;" style="shape=partialRectangle;html=1;whiteSpace=wrap;connectable=0;fillColor=none;top=0;left=0;bottom=0;right=0;overflow=hidden;strokeColor=#000000;" vertex="1" parent="72">
                    <mxGeometry x="457" width="113" height="47" as="geometry">
                        <mxRectangle width="113" height="47" as="alternateBounds"/>
                    </mxGeometry>
                </mxCell>
                <mxCell id="78" style="shape=tableRow;horizontal=0;startSize=0;swimlaneHead=0;swimlaneBody=0;top=0;left=0;bottom=0;right=0;collapsible=0;dropTarget=0;fillColor=none;points=[[0,0.5],[1,0.5]];portConstraint=eastwest;strokeColor=#000000;" vertex="1" parent="59">
                    <mxGeometry y="173" width="570" height="48" as="geometry"/>
                </mxCell>
                <mxCell id="79" value="3" style="shape=partialRectangle;html=1;whiteSpace=wrap;connectable=0;fillColor=none;top=0;left=0;bottom=0;right=0;overflow=hidden;strokeColor=#000000;" vertex="1" parent="78">
                    <mxGeometry width="54" height="48" as="geometry">
                        <mxRectangle width="54" height="48" as="alternateBounds"/>
                    </mxGeometry>
                </mxCell>
                <mxCell id="80" value="" style="shape=partialRectangle;html=1;whiteSpace=wrap;connectable=0;fillColor=none;top=0;left=0;bottom=0;right=0;overflow=hidden;strokeColor=#000000;" vertex="1" parent="78">
                    <mxGeometry x="54" width="177" height="48" as="geometry">
                        <mxRectangle width="177" height="48" as="alternateBounds"/>
                    </mxGeometry>
                </mxCell>
                <mxCell id="81" value="Наша кампания в глобальной рекламной выдаче" style="shape=partialRectangle;html=1;whiteSpace=wrap;connectable=0;fillColor=none;top=0;left=0;bottom=0;right=0;overflow=hidden;strokeColor=#000000;" vertex="1" parent="78">
                    <mxGeometry x="231" width="113" height="48" as="geometry">
                        <mxRectangle width="113" height="48" as="alternateBounds"/>
                    </mxGeometry>
                </mxCell>
                <mxCell id="82" value="&lt;span style=&quot;color: rgb(121, 38, 117); font-family: consolas, &amp;quot;lucida console&amp;quot;, &amp;quot;courier new&amp;quot;, monospace; text-align: left;&quot;&gt;global&lt;/span&gt;" style="shape=partialRectangle;html=1;whiteSpace=wrap;connectable=0;fillColor=none;top=0;left=0;bottom=0;right=0;overflow=hidden;strokeColor=#000000;" vertex="1" parent="78">
                    <mxGeometry x="344" width="113" height="48" as="geometry">
                        <mxRectangle width="113" height="48" as="alternateBounds"/>
                    </mxGeometry>
                </mxCell>
                <mxCell id="83" value="&lt;div style=&quot;text-align: justify;&quot;&gt;&lt;br&gt;&lt;/div&gt;" style="shape=partialRectangle;html=1;whiteSpace=wrap;connectable=0;fillColor=none;top=0;left=0;bottom=0;right=0;overflow=hidden;strokeColor=#000000;" vertex="1" parent="78">
                    <mxGeometry x="457" width="113" height="48" as="geometry">
                        <mxRectangle width="113" height="48" as="alternateBounds"/>
                    </mxGeometry>
                </mxCell>
                <mxCell id="102" value="global" style="shape=table;startSize=30;container=1;collapsible=0;childLayout=tableLayout;fontStyle=1;align=center;strokeColor=#000000;" vertex="1" parent="1">
                    <mxGeometry x="-380" y="1720" width="570" height="330" as="geometry"/>
                </mxCell>
                <mxCell id="103" value="" style="shape=tableRow;horizontal=0;startSize=0;swimlaneHead=0;swimlaneBody=0;top=0;left=0;bottom=0;right=0;collapsible=0;dropTarget=0;fillColor=none;points=[[0,0.5],[1,0.5]];portConstraint=eastwest;strokeColor=#000000;" vertex="1" parent="102">
                    <mxGeometry y="30" width="570" height="75" as="geometry"/>
                </mxCell>
                <mxCell id="104" value="№" style="shape=partialRectangle;html=1;whiteSpace=wrap;connectable=0;fillColor=none;top=0;left=0;bottom=0;right=0;overflow=hidden;strokeColor=#000000;" vertex="1" parent="103">
                    <mxGeometry width="54" height="75" as="geometry">
                        <mxRectangle width="54" height="75" as="alternateBounds"/>
                    </mxGeometry>
                </mxCell>
                <mxCell id="105" value="Наименование" style="shape=partialRectangle;html=1;whiteSpace=wrap;connectable=0;fillColor=none;top=0;left=0;bottom=0;right=0;overflow=hidden;strokeColor=#000000;" vertex="1" parent="103">
                    <mxGeometry x="54" width="177" height="75" as="geometry">
                        <mxRectangle width="177" height="75" as="alternateBounds"/>
                    </mxGeometry>
                </mxCell>
                <mxCell id="106" value="Описание" style="shape=partialRectangle;html=1;whiteSpace=wrap;connectable=0;fillColor=none;top=0;left=0;bottom=0;right=0;overflow=hidden;strokeColor=#000000;" vertex="1" parent="103">
                    <mxGeometry x="231" width="113" height="75" as="geometry">
                        <mxRectangle width="113" height="75" as="alternateBounds"/>
                    </mxGeometry>
                </mxCell>
                <mxCell id="107" value="Старое наименование" style="shape=partialRectangle;html=1;whiteSpace=wrap;connectable=0;fillColor=none;top=0;left=0;bottom=0;right=0;overflow=hidden;strokeColor=#000000;" vertex="1" parent="103">
                    <mxGeometry x="344" width="113" height="75" as="geometry">
                        <mxRectangle width="113" height="75" as="alternateBounds"/>
                    </mxGeometry>
                </mxCell>
                <mxCell id="108" style="shape=partialRectangle;html=1;whiteSpace=wrap;connectable=0;fillColor=none;top=0;left=0;bottom=0;right=0;overflow=hidden;strokeColor=#000000;" vertex="1" parent="103">
                    <mxGeometry x="457" width="113" height="75" as="geometry">
                        <mxRectangle width="113" height="75" as="alternateBounds"/>
                    </mxGeometry>
                </mxCell>
                <mxCell id="109" value="" style="shape=tableRow;horizontal=0;startSize=0;swimlaneHead=0;swimlaneBody=0;top=0;left=0;bottom=0;right=0;collapsible=0;dropTarget=0;fillColor=none;points=[[0,0.5],[1,0.5]];portConstraint=eastwest;strokeColor=#000000;" vertex="1" parent="102">
                    <mxGeometry y="105" width="570" height="76" as="geometry"/>
                </mxCell>
                <mxCell id="110" value="1" style="shape=partialRectangle;html=1;whiteSpace=wrap;connectable=0;fillColor=none;top=0;left=0;bottom=0;right=0;overflow=hidden;strokeColor=#000000;" vertex="1" parent="109">
                    <mxGeometry width="54" height="76" as="geometry">
                        <mxRectangle width="54" height="76" as="alternateBounds"/>
                    </mxGeometry>
                </mxCell>
                <mxCell id="111" value="" style="shape=partialRectangle;html=1;whiteSpace=wrap;connectable=0;fillColor=none;top=0;left=0;bottom=0;right=0;overflow=hidden;strokeColor=#000000;" vertex="1" parent="109">
                    <mxGeometry x="54" width="177" height="76" as="geometry">
                        <mxRectangle width="177" height="76" as="alternateBounds"/>
                    </mxGeometry>
                </mxCell>
                <mxCell id="112" value="Наша кампания в выдаче, если попала" style="shape=partialRectangle;html=1;whiteSpace=wrap;connectable=0;fillColor=none;top=0;left=0;bottom=0;right=0;overflow=hidden;strokeColor=#000000;" vertex="1" parent="109">
                    <mxGeometry x="231" width="113" height="76" as="geometry">
                        <mxRectangle width="113" height="76" as="alternateBounds"/>
                    </mxGeometry>
                </mxCell>
                <mxCell id="113" value="&lt;span style=&quot;color: rgb(121, 38, 117); font-family: consolas, &amp;quot;lucida console&amp;quot;, &amp;quot;courier new&amp;quot;, monospace; text-align: left;&quot;&gt;campaignPlace&lt;/span&gt;" style="shape=partialRectangle;html=1;whiteSpace=wrap;connectable=0;fillColor=none;top=0;left=0;bottom=0;right=0;overflow=hidden;strokeColor=#000000;" vertex="1" parent="109">
                    <mxGeometry x="344" width="113" height="76" as="geometry">
                        <mxRectangle width="113" height="76" as="alternateBounds"/>
                    </mxGeometry>
                </mxCell>
                <mxCell id="114" value="&lt;div style=&quot;text-align: justify;&quot;&gt;&lt;br&gt;&lt;/div&gt;" style="shape=partialRectangle;html=1;whiteSpace=wrap;connectable=0;fillColor=none;top=0;left=0;bottom=0;right=0;overflow=hidden;strokeColor=#000000;" vertex="1" parent="109">
                    <mxGeometry x="457" width="113" height="76" as="geometry">
                        <mxRectangle width="113" height="76" as="alternateBounds"/>
                    </mxGeometry>
                </mxCell>
                <mxCell id="115" value="" style="shape=tableRow;horizontal=0;startSize=0;swimlaneHead=0;swimlaneBody=0;top=0;left=0;bottom=0;right=0;collapsible=0;dropTarget=0;fillColor=none;points=[[0,0.5],[1,0.5]];portConstraint=eastwest;strokeColor=#000000;" vertex="1" parent="102">
                    <mxGeometry y="181" width="570" height="74" as="geometry"/>
                </mxCell>
                <mxCell id="116" value="2" style="shape=partialRectangle;html=1;whiteSpace=wrap;connectable=0;fillColor=none;top=0;left=0;bottom=0;right=0;overflow=hidden;strokeColor=#000000;" vertex="1" parent="115">
                    <mxGeometry width="54" height="74" as="geometry">
                        <mxRectangle width="54" height="74" as="alternateBounds"/>
                    </mxGeometry>
                </mxCell>
                <mxCell id="117" value="" style="shape=partialRectangle;html=1;whiteSpace=wrap;connectable=0;fillColor=none;top=0;left=0;bottom=0;right=0;overflow=hidden;strokeColor=#000000;" vertex="1" parent="115">
                    <mxGeometry x="54" width="177" height="74" as="geometry">
                        <mxRectangle width="177" height="74" as="alternateBounds"/>
                    </mxGeometry>
                </mxCell>
                <mxCell id="118" value="ставка которую нажно поставить, чтобы попасть на последнее место" style="shape=partialRectangle;html=1;whiteSpace=wrap;connectable=0;fillColor=none;top=0;left=0;bottom=0;right=0;overflow=hidden;strokeColor=#000000;" vertex="1" parent="115">
                    <mxGeometry x="231" width="113" height="74" as="geometry">
                        <mxRectangle width="113" height="74" as="alternateBounds"/>
                    </mxGeometry>
                </mxCell>
                <mxCell id="119" value="&lt;span style=&quot;color: rgb(121, 38, 117); font-family: consolas, &amp;quot;lucida console&amp;quot;, &amp;quot;courier new&amp;quot;, monospace; text-align: left;&quot;&gt;cpm&lt;/span&gt;" style="shape=partialRectangle;html=1;whiteSpace=wrap;connectable=0;fillColor=none;top=0;left=0;bottom=0;right=0;overflow=hidden;strokeColor=#000000;" vertex="1" parent="115">
                    <mxGeometry x="344" width="113" height="74" as="geometry">
                        <mxRectangle width="113" height="74" as="alternateBounds"/>
                    </mxGeometry>
                </mxCell>
                <mxCell id="120" value="&lt;div style=&quot;text-align: justify;&quot;&gt;&lt;br&gt;&lt;/div&gt;" style="shape=partialRectangle;html=1;whiteSpace=wrap;connectable=0;fillColor=none;top=0;left=0;bottom=0;right=0;overflow=hidden;strokeColor=#000000;" vertex="1" parent="115">
                    <mxGeometry x="457" width="113" height="74" as="geometry">
                        <mxRectangle width="113" height="74" as="alternateBounds"/>
                    </mxGeometry>
                </mxCell>
                <mxCell id="121" style="shape=tableRow;horizontal=0;startSize=0;swimlaneHead=0;swimlaneBody=0;top=0;left=0;bottom=0;right=0;collapsible=0;dropTarget=0;fillColor=none;points=[[0,0.5],[1,0.5]];portConstraint=eastwest;strokeColor=#000000;" vertex="1" parent="102">
                    <mxGeometry y="255" width="570" height="75" as="geometry"/>
                </mxCell>
                <mxCell id="122" value="3" style="shape=partialRectangle;html=1;whiteSpace=wrap;connectable=0;fillColor=none;top=0;left=0;bottom=0;right=0;overflow=hidden;strokeColor=#000000;" vertex="1" parent="121">
                    <mxGeometry width="54" height="75" as="geometry">
                        <mxRectangle width="54" height="75" as="alternateBounds"/>
                    </mxGeometry>
                </mxCell>
                <mxCell id="123" value="" style="shape=partialRectangle;html=1;whiteSpace=wrap;connectable=0;fillColor=none;top=0;left=0;bottom=0;right=0;overflow=hidden;strokeColor=#000000;" vertex="1" parent="121">
                    <mxGeometry x="54" width="177" height="75" as="geometry">
                        <mxRectangle width="177" height="75" as="alternateBounds"/>
                    </mxGeometry>
                </mxCell>
                <mxCell id="124" value="Проверяем соответствует текущая выдача нашей карточке" style="shape=partialRectangle;html=1;whiteSpace=wrap;connectable=0;fillColor=none;top=0;left=0;bottom=0;right=0;overflow=hidden;strokeColor=#000000;" vertex="1" parent="121">
                    <mxGeometry x="231" width="113" height="75" as="geometry">
                        <mxRectangle width="113" height="75" as="alternateBounds"/>
                    </mxGeometry>
                </mxCell>
                <mxCell id="125" value="&lt;span style=&quot;color: rgb(121, 38, 117); font-family: consolas, &amp;quot;lucida console&amp;quot;, &amp;quot;courier new&amp;quot;, monospace; text-align: left;&quot;&gt;isCampaignMatched&lt;/span&gt;" style="shape=partialRectangle;html=1;whiteSpace=wrap;connectable=0;fillColor=none;top=0;left=0;bottom=0;right=0;overflow=hidden;strokeColor=#000000;" vertex="1" parent="121">
                    <mxGeometry x="344" width="113" height="75" as="geometry">
                        <mxRectangle width="113" height="75" as="alternateBounds"/>
                    </mxGeometry>
                </mxCell>
                <mxCell id="126" value="&lt;div style=&quot;text-align: justify;&quot;&gt;&lt;br&gt;&lt;/div&gt;" style="shape=partialRectangle;html=1;whiteSpace=wrap;connectable=0;fillColor=none;top=0;left=0;bottom=0;right=0;overflow=hidden;strokeColor=#000000;" vertex="1" parent="121">
                    <mxGeometry x="457" width="113" height="75" as="geometry">
                        <mxRectangle width="113" height="75" as="alternateBounds"/>
                    </mxGeometry>
                </mxCell>
                <mxCell id="127" value="campaignPlace" style="shape=table;startSize=30;container=1;collapsible=0;childLayout=tableLayout;fontStyle=1;align=center;strokeColor=#000000;" vertex="1" parent="1">
                    <mxGeometry x="-380" y="2090" width="570" height="269" as="geometry"/>
                </mxCell>
                <mxCell id="128" value="" style="shape=tableRow;horizontal=0;startSize=0;swimlaneHead=0;swimlaneBody=0;top=0;left=0;bottom=0;right=0;collapsible=0;dropTarget=0;fillColor=none;points=[[0,0.5],[1,0.5]];portConstraint=eastwest;strokeColor=#000000;" vertex="1" parent="127">
                    <mxGeometry y="30" width="570" height="48" as="geometry"/>
                </mxCell>
                <mxCell id="129" value="№" style="shape=partialRectangle;html=1;whiteSpace=wrap;connectable=0;fillColor=none;top=0;left=0;bottom=0;right=0;overflow=hidden;strokeColor=#000000;" vertex="1" parent="128">
                    <mxGeometry width="54" height="48" as="geometry">
                        <mxRectangle width="54" height="48" as="alternateBounds"/>
                    </mxGeometry>
                </mxCell>
                <mxCell id="130" value="Наименование" style="shape=partialRectangle;html=1;whiteSpace=wrap;connectable=0;fillColor=none;top=0;left=0;bottom=0;right=0;overflow=hidden;strokeColor=#000000;" vertex="1" parent="128">
                    <mxGeometry x="54" width="177" height="48" as="geometry">
                        <mxRectangle width="177" height="48" as="alternateBounds"/>
                    </mxGeometry>
                </mxCell>
                <mxCell id="131" value="Описание" style="shape=partialRectangle;html=1;whiteSpace=wrap;connectable=0;fillColor=none;top=0;left=0;bottom=0;right=0;overflow=hidden;strokeColor=#000000;" vertex="1" parent="128">
                    <mxGeometry x="231" width="113" height="48" as="geometry">
                        <mxRectangle width="113" height="48" as="alternateBounds"/>
                    </mxGeometry>
                </mxCell>
                <mxCell id="132" value="Старое наименование" style="shape=partialRectangle;html=1;whiteSpace=wrap;connectable=0;fillColor=none;top=0;left=0;bottom=0;right=0;overflow=hidden;strokeColor=#000000;" vertex="1" parent="128">
                    <mxGeometry x="344" width="113" height="48" as="geometry">
                        <mxRectangle width="113" height="48" as="alternateBounds"/>
                    </mxGeometry>
                </mxCell>
                <mxCell id="133" style="shape=partialRectangle;html=1;whiteSpace=wrap;connectable=0;fillColor=none;top=0;left=0;bottom=0;right=0;overflow=hidden;strokeColor=#000000;" vertex="1" parent="128">
                    <mxGeometry x="457" width="113" height="48" as="geometry">
                        <mxRectangle width="113" height="48" as="alternateBounds"/>
                    </mxGeometry>
                </mxCell>
                <mxCell id="134" value="" style="shape=tableRow;horizontal=0;startSize=0;swimlaneHead=0;swimlaneBody=0;top=0;left=0;bottom=0;right=0;collapsible=0;dropTarget=0;fillColor=none;points=[[0,0.5],[1,0.5]];portConstraint=eastwest;strokeColor=#000000;" vertex="1" parent="127">
                    <mxGeometry y="78" width="570" height="48" as="geometry"/>
                </mxCell>
                <mxCell id="135" value="1" style="shape=partialRectangle;html=1;whiteSpace=wrap;connectable=0;fillColor=none;top=0;left=0;bottom=0;right=0;overflow=hidden;strokeColor=#000000;" vertex="1" parent="134">
                    <mxGeometry width="54" height="48" as="geometry">
                        <mxRectangle width="54" height="48" as="alternateBounds"/>
                    </mxGeometry>
                </mxCell>
                <mxCell id="136" value="" style="shape=partialRectangle;html=1;whiteSpace=wrap;connectable=0;fillColor=none;top=0;left=0;bottom=0;right=0;overflow=hidden;strokeColor=#000000;" vertex="1" parent="134">
                    <mxGeometry x="54" width="177" height="48" as="geometry">
                        <mxRectangle width="177" height="48" as="alternateBounds"/>
                    </mxGeometry>
                </mxCell>
                <mxCell id="137" value="Ид рекламной кампаний" style="shape=partialRectangle;html=1;whiteSpace=wrap;connectable=0;fillColor=none;top=0;left=0;bottom=0;right=0;overflow=hidden;strokeColor=#000000;" vertex="1" parent="134">
                    <mxGeometry x="231" width="113" height="48" as="geometry">
                        <mxRectangle width="113" height="48" as="alternateBounds"/>
                    </mxGeometry>
                </mxCell>
                <mxCell id="138" value="&lt;span style=&quot;color: rgb(121, 38, 117); font-family: consolas, &amp;quot;lucida console&amp;quot;, &amp;quot;courier new&amp;quot;, monospace; text-align: left;&quot;&gt;advertId&lt;/span&gt;" style="shape=partialRectangle;html=1;whiteSpace=wrap;connectable=0;fillColor=none;top=0;left=0;bottom=0;right=0;overflow=hidden;strokeColor=#000000;" vertex="1" parent="134">
                    <mxGeometry x="344" width="113" height="48" as="geometry">
                        <mxRectangle width="113" height="48" as="alternateBounds"/>
                    </mxGeometry>
                </mxCell>
                <mxCell id="139" value="&lt;div style=&quot;text-align: justify;&quot;&gt;&lt;br&gt;&lt;/div&gt;" style="shape=partialRectangle;html=1;whiteSpace=wrap;connectable=0;fillColor=none;top=0;left=0;bottom=0;right=0;overflow=hidden;strokeColor=#000000;" vertex="1" parent="134">
                    <mxGeometry x="457" width="113" height="48" as="geometry">
                        <mxRectangle width="113" height="48" as="alternateBounds"/>
                    </mxGeometry>
                </mxCell>
                <mxCell id="140" value="" style="shape=tableRow;horizontal=0;startSize=0;swimlaneHead=0;swimlaneBody=0;top=0;left=0;bottom=0;right=0;collapsible=0;dropTarget=0;fillColor=none;points=[[0,0.5],[1,0.5]];portConstraint=eastwest;strokeColor=#000000;" vertex="1" parent="127">
                    <mxGeometry y="126" width="570" height="47" as="geometry"/>
                </mxCell>
                <mxCell id="141" value="2" style="shape=partialRectangle;html=1;whiteSpace=wrap;connectable=0;fillColor=none;top=0;left=0;bottom=0;right=0;overflow=hidden;strokeColor=#000000;" vertex="1" parent="140">
                    <mxGeometry width="54" height="47" as="geometry">
                        <mxRectangle width="54" height="47" as="alternateBounds"/>
                    </mxGeometry>
                </mxCell>
                <mxCell id="142" value="" style="shape=partialRectangle;html=1;whiteSpace=wrap;connectable=0;fillColor=none;top=0;left=0;bottom=0;right=0;overflow=hidden;strokeColor=#000000;" vertex="1" parent="140">
                    <mxGeometry x="54" width="177" height="47" as="geometry">
                        <mxRectangle width="177" height="47" as="alternateBounds"/>
                    </mxGeometry>
                </mxCell>
                <mxCell id="143" value="ставка" style="shape=partialRectangle;html=1;whiteSpace=wrap;connectable=0;fillColor=none;top=0;left=0;bottom=0;right=0;overflow=hidden;strokeColor=#000000;" vertex="1" parent="140">
                    <mxGeometry x="231" width="113" height="47" as="geometry">
                        <mxRectangle width="113" height="47" as="alternateBounds"/>
                    </mxGeometry>
                </mxCell>
                <mxCell id="144" value="&lt;span style=&quot;color: rgb(121, 38, 117); font-family: consolas, &amp;quot;lucida console&amp;quot;, &amp;quot;courier new&amp;quot;, monospace; text-align: left;&quot;&gt;cpm&lt;/span&gt;" style="shape=partialRectangle;html=1;whiteSpace=wrap;connectable=0;fillColor=none;top=0;left=0;bottom=0;right=0;overflow=hidden;strokeColor=#000000;" vertex="1" parent="140">
                    <mxGeometry x="344" width="113" height="47" as="geometry">
                        <mxRectangle width="113" height="47" as="alternateBounds"/>
                    </mxGeometry>
                </mxCell>
                <mxCell id="145" value="&lt;div style=&quot;text-align: justify;&quot;&gt;&lt;br&gt;&lt;/div&gt;" style="shape=partialRectangle;html=1;whiteSpace=wrap;connectable=0;fillColor=none;top=0;left=0;bottom=0;right=0;overflow=hidden;strokeColor=#000000;" vertex="1" parent="140">
                    <mxGeometry x="457" width="113" height="47" as="geometry">
                        <mxRectangle width="113" height="47" as="alternateBounds"/>
                    </mxGeometry>
                </mxCell>
                <mxCell id="146" style="shape=tableRow;horizontal=0;startSize=0;swimlaneHead=0;swimlaneBody=0;top=0;left=0;bottom=0;right=0;collapsible=0;dropTarget=0;fillColor=none;points=[[0,0.5],[1,0.5]];portConstraint=eastwest;strokeColor=#000000;" vertex="1" parent="127">
                    <mxGeometry y="173" width="570" height="48" as="geometry"/>
                </mxCell>
                <mxCell id="147" value="3" style="shape=partialRectangle;html=1;whiteSpace=wrap;connectable=0;fillColor=none;top=0;left=0;bottom=0;right=0;overflow=hidden;strokeColor=#000000;" vertex="1" parent="146">
                    <mxGeometry width="54" height="48" as="geometry">
                        <mxRectangle width="54" height="48" as="alternateBounds"/>
                    </mxGeometry>
                </mxCell>
                <mxCell id="148" value="" style="shape=partialRectangle;html=1;whiteSpace=wrap;connectable=0;fillColor=none;top=0;left=0;bottom=0;right=0;overflow=hidden;strokeColor=#000000;" vertex="1" parent="146">
                    <mxGeometry x="54" width="177" height="48" as="geometry">
                        <mxRectangle width="177" height="48" as="alternateBounds"/>
                    </mxGeometry>
                </mxCell>
                <mxCell id="149" value="Артикул" style="shape=partialRectangle;html=1;whiteSpace=wrap;connectable=0;fillColor=none;top=0;left=0;bottom=0;right=0;overflow=hidden;strokeColor=#000000;" vertex="1" parent="146">
                    <mxGeometry x="231" width="113" height="48" as="geometry">
                        <mxRectangle width="113" height="48" as="alternateBounds"/>
                    </mxGeometry>
                </mxCell>
                <mxCell id="150" value="&lt;span style=&quot;color: rgb(121, 38, 117); font-family: consolas, &amp;quot;lucida console&amp;quot;, &amp;quot;courier new&amp;quot;, monospace; text-align: left;&quot;&gt;product_id&lt;/span&gt;" style="shape=partialRectangle;html=1;whiteSpace=wrap;connectable=0;fillColor=none;top=0;left=0;bottom=0;right=0;overflow=hidden;strokeColor=#000000;" vertex="1" parent="146">
                    <mxGeometry x="344" width="113" height="48" as="geometry">
                        <mxRectangle width="113" height="48" as="alternateBounds"/>
                    </mxGeometry>
                </mxCell>
                <mxCell id="151" value="&lt;div style=&quot;text-align: justify;&quot;&gt;&lt;br&gt;&lt;/div&gt;" style="shape=partialRectangle;html=1;whiteSpace=wrap;connectable=0;fillColor=none;top=0;left=0;bottom=0;right=0;overflow=hidden;strokeColor=#000000;" vertex="1" parent="146">
                    <mxGeometry x="457" width="113" height="48" as="geometry">
                        <mxRectangle width="113" height="48" as="alternateBounds"/>
                    </mxGeometry>
                </mxCell>
                <mxCell id="152" style="shape=tableRow;horizontal=0;startSize=0;swimlaneHead=0;swimlaneBody=0;top=0;left=0;bottom=0;right=0;collapsible=0;dropTarget=0;fillColor=none;points=[[0,0.5],[1,0.5]];portConstraint=eastwest;strokeColor=#000000;" vertex="1" parent="127">
                    <mxGeometry y="221" width="570" height="48" as="geometry"/>
                </mxCell>
                <mxCell id="153" style="shape=partialRectangle;html=1;whiteSpace=wrap;connectable=0;fillColor=none;top=0;left=0;bottom=0;right=0;overflow=hidden;strokeColor=#000000;" vertex="1" parent="152">
                    <mxGeometry width="54" height="48" as="geometry">
                        <mxRectangle width="54" height="48" as="alternateBounds"/>
                    </mxGeometry>
                </mxCell>
                <mxCell id="154" style="shape=partialRectangle;html=1;whiteSpace=wrap;connectable=0;fillColor=none;top=0;left=0;bottom=0;right=0;overflow=hidden;strokeColor=#000000;" vertex="1" parent="152">
                    <mxGeometry x="54" width="177" height="48" as="geometry">
                        <mxRectangle width="177" height="48" as="alternateBounds"/>
                    </mxGeometry>
                </mxCell>
                <mxCell id="155" value="Ид предмета" style="shape=partialRectangle;html=1;whiteSpace=wrap;connectable=0;fillColor=none;top=0;left=0;bottom=0;right=0;overflow=hidden;strokeColor=#000000;" vertex="1" parent="152">
                    <mxGeometry x="231" width="113" height="48" as="geometry">
                        <mxRectangle width="113" height="48" as="alternateBounds"/>
                    </mxGeometry>
                </mxCell>
                <mxCell id="156" value="&lt;span style=&quot;color: rgb(121, 38, 117); font-family: consolas, &amp;quot;lucida console&amp;quot;, &amp;quot;courier new&amp;quot;, monospace; text-align: left;&quot;&gt;subject&lt;/span&gt;" style="shape=partialRectangle;html=1;whiteSpace=wrap;connectable=0;fillColor=none;top=0;left=0;bottom=0;right=0;overflow=hidden;strokeColor=#000000;" vertex="1" parent="152">
                    <mxGeometry x="344" width="113" height="48" as="geometry">
                        <mxRectangle width="113" height="48" as="alternateBounds"/>
                    </mxGeometry>
                </mxCell>
                <mxCell id="157" style="shape=partialRectangle;html=1;whiteSpace=wrap;connectable=0;fillColor=none;top=0;left=0;bottom=0;right=0;overflow=hidden;strokeColor=#000000;" vertex="1" parent="152">
                    <mxGeometry x="457" width="113" height="48" as="geometry">
                        <mxRectangle width="113" height="48" as="alternateBounds"/>
                    </mxGeometry>
                </mxCell>
                <mxCell id="158" value="pages" style="shape=table;startSize=30;container=1;collapsible=0;childLayout=tableLayout;fontStyle=1;align=center;strokeColor=#000000;" vertex="1" parent="1">
                    <mxGeometry x="827" y="1460" width="570" height="365" as="geometry"/>
                </mxCell>
                <mxCell id="159" value="" style="shape=tableRow;horizontal=0;startSize=0;swimlaneHead=0;swimlaneBody=0;top=0;left=0;bottom=0;right=0;collapsible=0;dropTarget=0;fillColor=none;points=[[0,0.5],[1,0.5]];portConstraint=eastwest;strokeColor=#000000;" vertex="1" parent="158">
                    <mxGeometry y="30" width="570" height="48" as="geometry"/>
                </mxCell>
                <mxCell id="160" value="№" style="shape=partialRectangle;html=1;whiteSpace=wrap;connectable=0;fillColor=none;top=0;left=0;bottom=0;right=0;overflow=hidden;strokeColor=#000000;" vertex="1" parent="159">
                    <mxGeometry width="54" height="48" as="geometry">
                        <mxRectangle width="54" height="48" as="alternateBounds"/>
                    </mxGeometry>
                </mxCell>
                <mxCell id="161" value="Наименование" style="shape=partialRectangle;html=1;whiteSpace=wrap;connectable=0;fillColor=none;top=0;left=0;bottom=0;right=0;overflow=hidden;strokeColor=#000000;" vertex="1" parent="159">
                    <mxGeometry x="54" width="177" height="48" as="geometry">
                        <mxRectangle width="177" height="48" as="alternateBounds"/>
                    </mxGeometry>
                </mxCell>
                <mxCell id="162" value="Описание" style="shape=partialRectangle;html=1;whiteSpace=wrap;connectable=0;fillColor=none;top=0;left=0;bottom=0;right=0;overflow=hidden;strokeColor=#000000;" vertex="1" parent="159">
                    <mxGeometry x="231" width="113" height="48" as="geometry">
                        <mxRectangle width="113" height="48" as="alternateBounds"/>
                    </mxGeometry>
                </mxCell>
                <mxCell id="163" value="Старое наименование" style="shape=partialRectangle;html=1;whiteSpace=wrap;connectable=0;fillColor=none;top=0;left=0;bottom=0;right=0;overflow=hidden;strokeColor=#000000;" vertex="1" parent="159">
                    <mxGeometry x="344" width="113" height="48" as="geometry">
                        <mxRectangle width="113" height="48" as="alternateBounds"/>
                    </mxGeometry>
                </mxCell>
                <mxCell id="164" style="shape=partialRectangle;html=1;whiteSpace=wrap;connectable=0;fillColor=none;top=0;left=0;bottom=0;right=0;overflow=hidden;strokeColor=#000000;" vertex="1" parent="159">
                    <mxGeometry x="457" width="113" height="48" as="geometry">
                        <mxRectangle width="113" height="48" as="alternateBounds"/>
                    </mxGeometry>
                </mxCell>
                <mxCell id="165" value="" style="shape=tableRow;horizontal=0;startSize=0;swimlaneHead=0;swimlaneBody=0;top=0;left=0;bottom=0;right=0;collapsible=0;dropTarget=0;fillColor=none;points=[[0,0.5],[1,0.5]];portConstraint=eastwest;strokeColor=#000000;" vertex="1" parent="158">
                    <mxGeometry y="78" width="570" height="48" as="geometry"/>
                </mxCell>
                <mxCell id="166" value="1" style="shape=partialRectangle;html=1;whiteSpace=wrap;connectable=0;fillColor=none;top=0;left=0;bottom=0;right=0;overflow=hidden;strokeColor=#000000;" vertex="1" parent="165">
                    <mxGeometry width="54" height="48" as="geometry">
                        <mxRectangle width="54" height="48" as="alternateBounds"/>
                    </mxGeometry>
                </mxCell>
                <mxCell id="167" value="" style="shape=partialRectangle;html=1;whiteSpace=wrap;connectable=0;fillColor=none;top=0;left=0;bottom=0;right=0;overflow=hidden;strokeColor=#000000;" vertex="1" parent="165">
                    <mxGeometry x="54" width="177" height="48" as="geometry">
                        <mxRectangle width="177" height="48" as="alternateBounds"/>
                    </mxGeometry>
                </mxCell>
                <mxCell id="168" value="Ид рекламной кампаний" style="shape=partialRectangle;html=1;whiteSpace=wrap;connectable=0;fillColor=none;top=0;left=0;bottom=0;right=0;overflow=hidden;strokeColor=#000000;" vertex="1" parent="165">
                    <mxGeometry x="231" width="113" height="48" as="geometry">
                        <mxRectangle width="113" height="48" as="alternateBounds"/>
                    </mxGeometry>
                </mxCell>
                <mxCell id="169" value="&lt;span style=&quot;color: rgb(121, 38, 117); font-family: consolas, &amp;quot;lucida console&amp;quot;, &amp;quot;courier new&amp;quot;, monospace; text-align: left;&quot;&gt;advertId&lt;/span&gt;" style="shape=partialRectangle;html=1;whiteSpace=wrap;connectable=0;fillColor=none;top=0;left=0;bottom=0;right=0;overflow=hidden;strokeColor=#000000;" vertex="1" parent="165">
                    <mxGeometry x="344" width="113" height="48" as="geometry">
                        <mxRectangle width="113" height="48" as="alternateBounds"/>
                    </mxGeometry>
                </mxCell>
                <mxCell id="170" value="&lt;div style=&quot;text-align: justify;&quot;&gt;&lt;br&gt;&lt;/div&gt;" style="shape=partialRectangle;html=1;whiteSpace=wrap;connectable=0;fillColor=none;top=0;left=0;bottom=0;right=0;overflow=hidden;strokeColor=#000000;" vertex="1" parent="165">
                    <mxGeometry x="457" width="113" height="48" as="geometry">
                        <mxRectangle width="113" height="48" as="alternateBounds"/>
                    </mxGeometry>
                </mxCell>
                <mxCell id="171" value="" style="shape=tableRow;horizontal=0;startSize=0;swimlaneHead=0;swimlaneBody=0;top=0;left=0;bottom=0;right=0;collapsible=0;dropTarget=0;fillColor=none;points=[[0,0.5],[1,0.5]];portConstraint=eastwest;strokeColor=#000000;" vertex="1" parent="158">
                    <mxGeometry y="126" width="570" height="47" as="geometry"/>
                </mxCell>
                <mxCell id="172" value="2" style="shape=partialRectangle;html=1;whiteSpace=wrap;connectable=0;fillColor=none;top=0;left=0;bottom=0;right=0;overflow=hidden;strokeColor=#000000;" vertex="1" parent="171">
                    <mxGeometry width="54" height="47" as="geometry">
                        <mxRectangle width="54" height="47" as="alternateBounds"/>
                    </mxGeometry>
                </mxCell>
                <mxCell id="173" value="" style="shape=partialRectangle;html=1;whiteSpace=wrap;connectable=0;fillColor=none;top=0;left=0;bottom=0;right=0;overflow=hidden;strokeColor=#000000;" vertex="1" parent="171">
                    <mxGeometry x="54" width="177" height="47" as="geometry">
                        <mxRectangle width="177" height="47" as="alternateBounds"/>
                    </mxGeometry>
                </mxCell>
                <mxCell id="174" value="ставка" style="shape=partialRectangle;html=1;whiteSpace=wrap;connectable=0;fillColor=none;top=0;left=0;bottom=0;right=0;overflow=hidden;strokeColor=#000000;" vertex="1" parent="171">
                    <mxGeometry x="231" width="113" height="47" as="geometry">
                        <mxRectangle width="113" height="47" as="alternateBounds"/>
                    </mxGeometry>
                </mxCell>
                <mxCell id="175" value="&lt;span style=&quot;color: rgb(121, 38, 117); font-family: consolas, &amp;quot;lucida console&amp;quot;, &amp;quot;courier new&amp;quot;, monospace; text-align: left;&quot;&gt;cpm&lt;/span&gt;" style="shape=partialRectangle;html=1;whiteSpace=wrap;connectable=0;fillColor=none;top=0;left=0;bottom=0;right=0;overflow=hidden;strokeColor=#000000;" vertex="1" parent="171">
                    <mxGeometry x="344" width="113" height="47" as="geometry">
                        <mxRectangle width="113" height="47" as="alternateBounds"/>
                    </mxGeometry>
                </mxCell>
                <mxCell id="176" value="&lt;div style=&quot;text-align: justify;&quot;&gt;&lt;br&gt;&lt;/div&gt;" style="shape=partialRectangle;html=1;whiteSpace=wrap;connectable=0;fillColor=none;top=0;left=0;bottom=0;right=0;overflow=hidden;strokeColor=#000000;" vertex="1" parent="171">
                    <mxGeometry x="457" width="113" height="47" as="geometry">
                        <mxRectangle width="113" height="47" as="alternateBounds"/>
                    </mxGeometry>
                </mxCell>
                <mxCell id="177" style="shape=tableRow;horizontal=0;startSize=0;swimlaneHead=0;swimlaneBody=0;top=0;left=0;bottom=0;right=0;collapsible=0;dropTarget=0;fillColor=none;points=[[0,0.5],[1,0.5]];portConstraint=eastwest;strokeColor=#000000;" vertex="1" parent="158">
                    <mxGeometry y="173" width="570" height="48" as="geometry"/>
                </mxCell>
                <mxCell id="178" value="3" style="shape=partialRectangle;html=1;whiteSpace=wrap;connectable=0;fillColor=none;top=0;left=0;bottom=0;right=0;overflow=hidden;strokeColor=#000000;" vertex="1" parent="177">
                    <mxGeometry width="54" height="48" as="geometry">
                        <mxRectangle width="54" height="48" as="alternateBounds"/>
                    </mxGeometry>
                </mxCell>
                <mxCell id="179" value="" style="shape=partialRectangle;html=1;whiteSpace=wrap;connectable=0;fillColor=none;top=0;left=0;bottom=0;right=0;overflow=hidden;strokeColor=#000000;" vertex="1" parent="177">
                    <mxGeometry x="54" width="177" height="48" as="geometry">
                        <mxRectangle width="177" height="48" as="alternateBounds"/>
                    </mxGeometry>
                </mxCell>
                <mxCell id="180" value="Артикул" style="shape=partialRectangle;html=1;whiteSpace=wrap;connectable=0;fillColor=none;top=0;left=0;bottom=0;right=0;overflow=hidden;strokeColor=#000000;" vertex="1" parent="177">
                    <mxGeometry x="231" width="113" height="48" as="geometry">
                        <mxRectangle width="113" height="48" as="alternateBounds"/>
                    </mxGeometry>
                </mxCell>
                <mxCell id="181" value="&lt;span style=&quot;color: rgb(121, 38, 117); font-family: consolas, &amp;quot;lucida console&amp;quot;, &amp;quot;courier new&amp;quot;, monospace; text-align: left;&quot;&gt;product_id&lt;/span&gt;" style="shape=partialRectangle;html=1;whiteSpace=wrap;connectable=0;fillColor=none;top=0;left=0;bottom=0;right=0;overflow=hidden;strokeColor=#000000;" vertex="1" parent="177">
                    <mxGeometry x="344" width="113" height="48" as="geometry">
                        <mxRectangle width="113" height="48" as="alternateBounds"/>
                    </mxGeometry>
                </mxCell>
                <mxCell id="182" value="&lt;div style=&quot;text-align: justify;&quot;&gt;&lt;br&gt;&lt;/div&gt;" style="shape=partialRectangle;html=1;whiteSpace=wrap;connectable=0;fillColor=none;top=0;left=0;bottom=0;right=0;overflow=hidden;strokeColor=#000000;" vertex="1" parent="177">
                    <mxGeometry x="457" width="113" height="48" as="geometry">
                        <mxRectangle width="113" height="48" as="alternateBounds"/>
                    </mxGeometry>
                </mxCell>
                <mxCell id="183" style="shape=tableRow;horizontal=0;startSize=0;swimlaneHead=0;swimlaneBody=0;top=0;left=0;bottom=0;right=0;collapsible=0;dropTarget=0;fillColor=none;points=[[0,0.5],[1,0.5]];portConstraint=eastwest;strokeColor=#000000;" vertex="1" parent="158">
                    <mxGeometry y="221" width="570" height="48" as="geometry"/>
                </mxCell>
                <mxCell id="184" style="shape=partialRectangle;html=1;whiteSpace=wrap;connectable=0;fillColor=none;top=0;left=0;bottom=0;right=0;overflow=hidden;strokeColor=#000000;" vertex="1" parent="183">
                    <mxGeometry width="54" height="48" as="geometry">
                        <mxRectangle width="54" height="48" as="alternateBounds"/>
                    </mxGeometry>
                </mxCell>
                <mxCell id="185" style="shape=partialRectangle;html=1;whiteSpace=wrap;connectable=0;fillColor=none;top=0;left=0;bottom=0;right=0;overflow=hidden;strokeColor=#000000;" vertex="1" parent="183">
                    <mxGeometry x="54" width="177" height="48" as="geometry">
                        <mxRectangle width="177" height="48" as="alternateBounds"/>
                    </mxGeometry>
                </mxCell>
                <mxCell id="186" value="Ид предмета" style="shape=partialRectangle;html=1;whiteSpace=wrap;connectable=0;fillColor=none;top=0;left=0;bottom=0;right=0;overflow=hidden;strokeColor=#000000;" vertex="1" parent="183">
                    <mxGeometry x="231" width="113" height="48" as="geometry">
                        <mxRectangle width="113" height="48" as="alternateBounds"/>
                    </mxGeometry>
                </mxCell>
                <mxCell id="187" value="&lt;span style=&quot;color: rgb(121, 38, 117); font-family: consolas, &amp;quot;lucida console&amp;quot;, &amp;quot;courier new&amp;quot;, monospace; text-align: left;&quot;&gt;subject&lt;/span&gt;" style="shape=partialRectangle;html=1;whiteSpace=wrap;connectable=0;fillColor=none;top=0;left=0;bottom=0;right=0;overflow=hidden;strokeColor=#000000;" vertex="1" parent="183">
                    <mxGeometry x="344" width="113" height="48" as="geometry">
                        <mxRectangle width="113" height="48" as="alternateBounds"/>
                    </mxGeometry>
                </mxCell>
                <mxCell id="188" style="shape=partialRectangle;html=1;whiteSpace=wrap;connectable=0;fillColor=none;top=0;left=0;bottom=0;right=0;overflow=hidden;strokeColor=#000000;" vertex="1" parent="183">
                    <mxGeometry x="457" width="113" height="48" as="geometry">
                        <mxRectangle width="113" height="48" as="alternateBounds"/>
                    </mxGeometry>
                </mxCell>
                <mxCell id="189" style="shape=tableRow;horizontal=0;startSize=0;swimlaneHead=0;swimlaneBody=0;top=0;left=0;bottom=0;right=0;collapsible=0;dropTarget=0;fillColor=none;points=[[0,0.5],[1,0.5]];portConstraint=eastwest;strokeColor=#000000;" vertex="1" parent="158">
                    <mxGeometry y="269" width="570" height="48" as="geometry"/>
                </mxCell>
                <mxCell id="190" style="shape=partialRectangle;html=1;whiteSpace=wrap;connectable=0;fillColor=none;top=0;left=0;bottom=0;right=0;overflow=hidden;strokeColor=#000000;" vertex="1" parent="189">
                    <mxGeometry width="54" height="48" as="geometry">
                        <mxRectangle width="54" height="48" as="alternateBounds"/>
                    </mxGeometry>
                </mxCell>
                <mxCell id="191" style="shape=partialRectangle;html=1;whiteSpace=wrap;connectable=0;fillColor=none;top=0;left=0;bottom=0;right=0;overflow=hidden;strokeColor=#000000;" vertex="1" parent="189">
                    <mxGeometry x="54" width="177" height="48" as="geometry">
                        <mxRectangle width="177" height="48" as="alternateBounds"/>
                    </mxGeometry>
                </mxCell>
                <mxCell id="192" value="Органическая позиция выдачи" style="shape=partialRectangle;html=1;whiteSpace=wrap;connectable=0;fillColor=none;top=0;left=0;bottom=0;right=0;overflow=hidden;strokeColor=#000000;" vertex="1" parent="189">
                    <mxGeometry x="231" width="113" height="48" as="geometry">
                        <mxRectangle width="113" height="48" as="alternateBounds"/>
                    </mxGeometry>
                </mxCell>
                <mxCell id="193" value="&lt;span style=&quot;color: rgb(121, 38, 117); font-family: consolas, &amp;quot;lucida console&amp;quot;, &amp;quot;courier new&amp;quot;, monospace; text-align: left;&quot;&gt;organicPosition&lt;/span&gt;" style="shape=partialRectangle;html=1;whiteSpace=wrap;connectable=0;fillColor=none;top=0;left=0;bottom=0;right=0;overflow=hidden;strokeColor=#000000;" vertex="1" parent="189">
                    <mxGeometry x="344" width="113" height="48" as="geometry">
                        <mxRectangle width="113" height="48" as="alternateBounds"/>
                    </mxGeometry>
                </mxCell>
                <mxCell id="194" style="shape=partialRectangle;html=1;whiteSpace=wrap;connectable=0;fillColor=none;top=0;left=0;bottom=0;right=0;overflow=hidden;strokeColor=#000000;" vertex="1" parent="189">
                    <mxGeometry x="457" width="113" height="48" as="geometry">
                        <mxRectangle width="113" height="48" as="alternateBounds"/>
                    </mxGeometry>
                </mxCell>
                <mxCell id="195" style="shape=tableRow;horizontal=0;startSize=0;swimlaneHead=0;swimlaneBody=0;top=0;left=0;bottom=0;right=0;collapsible=0;dropTarget=0;fillColor=none;points=[[0,0.5],[1,0.5]];portConstraint=eastwest;strokeColor=#000000;" vertex="1" parent="158">
                    <mxGeometry y="317" width="570" height="48" as="geometry"/>
                </mxCell>
                <mxCell id="196" style="shape=partialRectangle;html=1;whiteSpace=wrap;connectable=0;fillColor=none;top=0;left=0;bottom=0;right=0;overflow=hidden;strokeColor=#000000;" vertex="1" parent="195">
                    <mxGeometry width="54" height="48" as="geometry">
                        <mxRectangle width="54" height="48" as="alternateBounds"/>
                    </mxGeometry>
                </mxCell>
                <mxCell id="197" style="shape=partialRectangle;html=1;whiteSpace=wrap;connectable=0;fillColor=none;top=0;left=0;bottom=0;right=0;overflow=hidden;strokeColor=#000000;" vertex="1" parent="195">
                    <mxGeometry x="54" width="177" height="48" as="geometry">
                        <mxRectangle width="177" height="48" as="alternateBounds"/>
                    </mxGeometry>
                </mxCell>
                <mxCell id="198" value="Рекламная позиция" style="shape=partialRectangle;html=1;whiteSpace=wrap;connectable=0;fillColor=none;top=0;left=0;bottom=0;right=0;overflow=hidden;strokeColor=#000000;" vertex="1" parent="195">
                    <mxGeometry x="231" width="113" height="48" as="geometry">
                        <mxRectangle width="113" height="48" as="alternateBounds"/>
                    </mxGeometry>
                </mxCell>
                <mxCell id="199" value="&lt;span style=&quot;color: rgb(121, 38, 117); font-family: consolas, &amp;quot;lucida console&amp;quot;, &amp;quot;courier new&amp;quot;, monospace; text-align: left;&quot;&gt;position&lt;/span&gt;" style="shape=partialRectangle;html=1;whiteSpace=wrap;connectable=0;fillColor=none;top=0;left=0;bottom=0;right=0;overflow=hidden;strokeColor=#000000;" vertex="1" parent="195">
                    <mxGeometry x="344" width="113" height="48" as="geometry">
                        <mxRectangle width="113" height="48" as="alternateBounds"/>
                    </mxGeometry>
                </mxCell>
                <mxCell id="200" style="shape=partialRectangle;html=1;whiteSpace=wrap;connectable=0;fillColor=none;top=0;left=0;bottom=0;right=0;overflow=hidden;strokeColor=#000000;" vertex="1" parent="195">
                    <mxGeometry x="457" width="113" height="48" as="geometry">
                        <mxRectangle width="113" height="48" as="alternateBounds"/>
                    </mxGeometry>
                </mxCell>
                <mxCell id="201" value="prioritySubjects" style="shape=table;startSize=30;container=1;collapsible=0;childLayout=tableLayout;fontStyle=1;align=center;strokeColor=#000000;" vertex="1" parent="1">
                    <mxGeometry x="220" y="1460" width="570" height="173" as="geometry"/>
                </mxCell>
                <mxCell id="202" value="" style="shape=tableRow;horizontal=0;startSize=0;swimlaneHead=0;swimlaneBody=0;top=0;left=0;bottom=0;right=0;collapsible=0;dropTarget=0;fillColor=none;points=[[0,0.5],[1,0.5]];portConstraint=eastwest;strokeColor=#000000;" vertex="1" parent="201">
                    <mxGeometry y="30" width="570" height="48" as="geometry"/>
                </mxCell>
                <mxCell id="203" value="№" style="shape=partialRectangle;html=1;whiteSpace=wrap;connectable=0;fillColor=none;top=0;left=0;bottom=0;right=0;overflow=hidden;strokeColor=#000000;" vertex="1" parent="202">
                    <mxGeometry width="54" height="48" as="geometry">
                        <mxRectangle width="54" height="48" as="alternateBounds"/>
                    </mxGeometry>
                </mxCell>
                <mxCell id="204" value="Наименование" style="shape=partialRectangle;html=1;whiteSpace=wrap;connectable=0;fillColor=none;top=0;left=0;bottom=0;right=0;overflow=hidden;strokeColor=#000000;" vertex="1" parent="202">
                    <mxGeometry x="54" width="177" height="48" as="geometry">
                        <mxRectangle width="177" height="48" as="alternateBounds"/>
                    </mxGeometry>
                </mxCell>
                <mxCell id="205" value="Описание" style="shape=partialRectangle;html=1;whiteSpace=wrap;connectable=0;fillColor=none;top=0;left=0;bottom=0;right=0;overflow=hidden;strokeColor=#000000;" vertex="1" parent="202">
                    <mxGeometry x="231" width="113" height="48" as="geometry">
                        <mxRectangle width="113" height="48" as="alternateBounds"/>
                    </mxGeometry>
                </mxCell>
                <mxCell id="206" value="Старое наименование" style="shape=partialRectangle;html=1;whiteSpace=wrap;connectable=0;fillColor=none;top=0;left=0;bottom=0;right=0;overflow=hidden;strokeColor=#000000;" vertex="1" parent="202">
                    <mxGeometry x="344" width="113" height="48" as="geometry">
                        <mxRectangle width="113" height="48" as="alternateBounds"/>
                    </mxGeometry>
                </mxCell>
                <mxCell id="207" style="shape=partialRectangle;html=1;whiteSpace=wrap;connectable=0;fillColor=none;top=0;left=0;bottom=0;right=0;overflow=hidden;strokeColor=#000000;" vertex="1" parent="202">
                    <mxGeometry x="457" width="113" height="48" as="geometry">
                        <mxRectangle width="113" height="48" as="alternateBounds"/>
                    </mxGeometry>
                </mxCell>
                <mxCell id="208" value="" style="shape=tableRow;horizontal=0;startSize=0;swimlaneHead=0;swimlaneBody=0;top=0;left=0;bottom=0;right=0;collapsible=0;dropTarget=0;fillColor=none;points=[[0,0.5],[1,0.5]];portConstraint=eastwest;strokeColor=#000000;" vertex="1" parent="201">
                    <mxGeometry y="78" width="570" height="48" as="geometry"/>
                </mxCell>
                <mxCell id="209" value="1" style="shape=partialRectangle;html=1;whiteSpace=wrap;connectable=0;fillColor=none;top=0;left=0;bottom=0;right=0;overflow=hidden;strokeColor=#000000;" vertex="1" parent="208">
                    <mxGeometry width="54" height="48" as="geometry">
                        <mxRectangle width="54" height="48" as="alternateBounds"/>
                    </mxGeometry>
                </mxCell>
                <mxCell id="210" value="" style="shape=partialRectangle;html=1;whiteSpace=wrap;connectable=0;fillColor=none;top=0;left=0;bottom=0;right=0;overflow=hidden;strokeColor=#000000;" vertex="1" parent="208">
                    <mxGeometry x="54" width="177" height="48" as="geometry">
                        <mxRectangle width="177" height="48" as="alternateBounds"/>
                    </mxGeometry>
                </mxCell>
                <mxCell id="211" value="Ид предмета" style="shape=partialRectangle;html=1;whiteSpace=wrap;connectable=0;fillColor=none;top=0;left=0;bottom=0;right=0;overflow=hidden;strokeColor=#000000;" vertex="1" parent="208">
                    <mxGeometry x="231" width="113" height="48" as="geometry">
                        <mxRectangle width="113" height="48" as="alternateBounds"/>
                    </mxGeometry>
                </mxCell>
                <mxCell id="212" value="&lt;span style=&quot;color: rgb(121, 38, 117); font-family: consolas, &amp;quot;lucida console&amp;quot;, &amp;quot;courier new&amp;quot;, monospace; text-align: left;&quot;&gt;id&lt;/span&gt;" style="shape=partialRectangle;html=1;whiteSpace=wrap;connectable=0;fillColor=none;top=0;left=0;bottom=0;right=0;overflow=hidden;strokeColor=#000000;" vertex="1" parent="208">
                    <mxGeometry x="344" width="113" height="48" as="geometry">
                        <mxRectangle width="113" height="48" as="alternateBounds"/>
                    </mxGeometry>
                </mxCell>
                <mxCell id="213" value="&lt;div style=&quot;text-align: justify;&quot;&gt;&lt;br&gt;&lt;/div&gt;" style="shape=partialRectangle;html=1;whiteSpace=wrap;connectable=0;fillColor=none;top=0;left=0;bottom=0;right=0;overflow=hidden;strokeColor=#000000;" vertex="1" parent="208">
                    <mxGeometry x="457" width="113" height="48" as="geometry">
                        <mxRectangle width="113" height="48" as="alternateBounds"/>
                    </mxGeometry>
                </mxCell>
                <mxCell id="214" value="" style="shape=tableRow;horizontal=0;startSize=0;swimlaneHead=0;swimlaneBody=0;top=0;left=0;bottom=0;right=0;collapsible=0;dropTarget=0;fillColor=none;points=[[0,0.5],[1,0.5]];portConstraint=eastwest;strokeColor=#000000;" vertex="1" parent="201">
                    <mxGeometry y="126" width="570" height="47" as="geometry"/>
                </mxCell>
                <mxCell id="215" value="2" style="shape=partialRectangle;html=1;whiteSpace=wrap;connectable=0;fillColor=none;top=0;left=0;bottom=0;right=0;overflow=hidden;strokeColor=#000000;" vertex="1" parent="214">
                    <mxGeometry width="54" height="47" as="geometry">
                        <mxRectangle width="54" height="47" as="alternateBounds"/>
                    </mxGeometry>
                </mxCell>
                <mxCell id="216" value="" style="shape=partialRectangle;html=1;whiteSpace=wrap;connectable=0;fillColor=none;top=0;left=0;bottom=0;right=0;overflow=hidden;strokeColor=#000000;" vertex="1" parent="214">
                    <mxGeometry x="54" width="177" height="47" as="geometry">
                        <mxRectangle width="177" height="47" as="alternateBounds"/>
                    </mxGeometry>
                </mxCell>
                <mxCell id="217" value="Название предмета" style="shape=partialRectangle;html=1;whiteSpace=wrap;connectable=0;fillColor=none;top=0;left=0;bottom=0;right=0;overflow=hidden;strokeColor=#000000;" vertex="1" parent="214">
                    <mxGeometry x="231" width="113" height="47" as="geometry">
                        <mxRectangle width="113" height="47" as="alternateBounds"/>
                    </mxGeometry>
                </mxCell>
                <mxCell id="218" value="&lt;span style=&quot;box-sizing: border-box; min-width: 0px; min-height: 0px; color: var(--color-syntax-2); flex-shrink: 0; font-family: consolas, &amp;quot;lucida console&amp;quot;, &amp;quot;courier new&amp;quot;, monospace; text-align: left;&quot; title=&quot;response.prioritySubjects[0].name&quot; class=&quot;name&quot;&gt;name&lt;/span&gt;" style="shape=partialRectangle;html=1;whiteSpace=wrap;connectable=0;fillColor=none;top=0;left=0;bottom=0;right=0;overflow=hidden;strokeColor=#000000;" vertex="1" parent="214">
                    <mxGeometry x="344" width="113" height="47" as="geometry">
                        <mxRectangle width="113" height="47" as="alternateBounds"/>
                    </mxGeometry>
                </mxCell>
                <mxCell id="219" value="&lt;div style=&quot;text-align: justify;&quot;&gt;&lt;br&gt;&lt;/div&gt;" style="shape=partialRectangle;html=1;whiteSpace=wrap;connectable=0;fillColor=none;top=0;left=0;bottom=0;right=0;overflow=hidden;strokeColor=#000000;" vertex="1" parent="214">
                    <mxGeometry x="457" width="113" height="47" as="geometry">
                        <mxRectangle width="113" height="47" as="alternateBounds"/>
                    </mxGeometry>
                </mxCell>
                <mxCell id="232" value="unfiltered" style="shape=table;startSize=30;container=1;collapsible=0;childLayout=tableLayout;fontStyle=1;align=center;strokeColor=#000000;" vertex="1" parent="1">
                    <mxGeometry x="1430" y="1460" width="570" height="269" as="geometry"/>
                </mxCell>
                <mxCell id="233" value="" style="shape=tableRow;horizontal=0;startSize=0;swimlaneHead=0;swimlaneBody=0;top=0;left=0;bottom=0;right=0;collapsible=0;dropTarget=0;fillColor=none;points=[[0,0.5],[1,0.5]];portConstraint=eastwest;strokeColor=#000000;" vertex="1" parent="232">
                    <mxGeometry y="30" width="570" height="48" as="geometry"/>
                </mxCell>
                <mxCell id="234" value="№" style="shape=partialRectangle;html=1;whiteSpace=wrap;connectable=0;fillColor=none;top=0;left=0;bottom=0;right=0;overflow=hidden;strokeColor=#000000;" vertex="1" parent="233">
                    <mxGeometry width="54" height="48" as="geometry">
                        <mxRectangle width="54" height="48" as="alternateBounds"/>
                    </mxGeometry>
                </mxCell>
                <mxCell id="235" value="Наименование" style="shape=partialRectangle;html=1;whiteSpace=wrap;connectable=0;fillColor=none;top=0;left=0;bottom=0;right=0;overflow=hidden;strokeColor=#000000;" vertex="1" parent="233">
                    <mxGeometry x="54" width="177" height="48" as="geometry">
                        <mxRectangle width="177" height="48" as="alternateBounds"/>
                    </mxGeometry>
                </mxCell>
                <mxCell id="236" value="Описание" style="shape=partialRectangle;html=1;whiteSpace=wrap;connectable=0;fillColor=none;top=0;left=0;bottom=0;right=0;overflow=hidden;strokeColor=#000000;" vertex="1" parent="233">
                    <mxGeometry x="231" width="113" height="48" as="geometry">
                        <mxRectangle width="113" height="48" as="alternateBounds"/>
                    </mxGeometry>
                </mxCell>
                <mxCell id="237" value="Старое наименование" style="shape=partialRectangle;html=1;whiteSpace=wrap;connectable=0;fillColor=none;top=0;left=0;bottom=0;right=0;overflow=hidden;strokeColor=#000000;" vertex="1" parent="233">
                    <mxGeometry x="344" width="113" height="48" as="geometry">
                        <mxRectangle width="113" height="48" as="alternateBounds"/>
                    </mxGeometry>
                </mxCell>
                <mxCell id="238" style="shape=partialRectangle;html=1;whiteSpace=wrap;connectable=0;fillColor=none;top=0;left=0;bottom=0;right=0;overflow=hidden;strokeColor=#000000;" vertex="1" parent="233">
                    <mxGeometry x="457" width="113" height="48" as="geometry">
                        <mxRectangle width="113" height="48" as="alternateBounds"/>
                    </mxGeometry>
                </mxCell>
                <mxCell id="239" value="" style="shape=tableRow;horizontal=0;startSize=0;swimlaneHead=0;swimlaneBody=0;top=0;left=0;bottom=0;right=0;collapsible=0;dropTarget=0;fillColor=none;points=[[0,0.5],[1,0.5]];portConstraint=eastwest;strokeColor=#000000;" vertex="1" parent="232">
                    <mxGeometry y="78" width="570" height="48" as="geometry"/>
                </mxCell>
                <mxCell id="240" value="1" style="shape=partialRectangle;html=1;whiteSpace=wrap;connectable=0;fillColor=none;top=0;left=0;bottom=0;right=0;overflow=hidden;strokeColor=#000000;" vertex="1" parent="239">
                    <mxGeometry width="54" height="48" as="geometry">
                        <mxRectangle width="54" height="48" as="alternateBounds"/>
                    </mxGeometry>
                </mxCell>
                <mxCell id="241" value="" style="shape=partialRectangle;html=1;whiteSpace=wrap;connectable=0;fillColor=none;top=0;left=0;bottom=0;right=0;overflow=hidden;strokeColor=#000000;" vertex="1" parent="239">
                    <mxGeometry x="54" width="177" height="48" as="geometry">
                        <mxRectangle width="177" height="48" as="alternateBounds"/>
                    </mxGeometry>
                </mxCell>
                <mxCell id="242" value="Ид рекламной кампаний" style="shape=partialRectangle;html=1;whiteSpace=wrap;connectable=0;fillColor=none;top=0;left=0;bottom=0;right=0;overflow=hidden;strokeColor=#000000;" vertex="1" parent="239">
                    <mxGeometry x="231" width="113" height="48" as="geometry">
                        <mxRectangle width="113" height="48" as="alternateBounds"/>
                    </mxGeometry>
                </mxCell>
                <mxCell id="243" value="&lt;span style=&quot;color: rgb(121, 38, 117); font-family: consolas, &amp;quot;lucida console&amp;quot;, &amp;quot;courier new&amp;quot;, monospace; text-align: left;&quot;&gt;advertId&lt;/span&gt;" style="shape=partialRectangle;html=1;whiteSpace=wrap;connectable=0;fillColor=none;top=0;left=0;bottom=0;right=0;overflow=hidden;strokeColor=#000000;" vertex="1" parent="239">
                    <mxGeometry x="344" width="113" height="48" as="geometry">
                        <mxRectangle width="113" height="48" as="alternateBounds"/>
                    </mxGeometry>
                </mxCell>
                <mxCell id="244" value="&lt;div style=&quot;text-align: justify;&quot;&gt;&lt;br&gt;&lt;/div&gt;" style="shape=partialRectangle;html=1;whiteSpace=wrap;connectable=0;fillColor=none;top=0;left=0;bottom=0;right=0;overflow=hidden;strokeColor=#000000;" vertex="1" parent="239">
                    <mxGeometry x="457" width="113" height="48" as="geometry">
                        <mxRectangle width="113" height="48" as="alternateBounds"/>
                    </mxGeometry>
                </mxCell>
                <mxCell id="245" value="" style="shape=tableRow;horizontal=0;startSize=0;swimlaneHead=0;swimlaneBody=0;top=0;left=0;bottom=0;right=0;collapsible=0;dropTarget=0;fillColor=none;points=[[0,0.5],[1,0.5]];portConstraint=eastwest;strokeColor=#000000;" vertex="1" parent="232">
                    <mxGeometry y="126" width="570" height="47" as="geometry"/>
                </mxCell>
                <mxCell id="246" value="2" style="shape=partialRectangle;html=1;whiteSpace=wrap;connectable=0;fillColor=none;top=0;left=0;bottom=0;right=0;overflow=hidden;strokeColor=#000000;" vertex="1" parent="245">
                    <mxGeometry width="54" height="47" as="geometry">
                        <mxRectangle width="54" height="47" as="alternateBounds"/>
                    </mxGeometry>
                </mxCell>
                <mxCell id="247" value="" style="shape=partialRectangle;html=1;whiteSpace=wrap;connectable=0;fillColor=none;top=0;left=0;bottom=0;right=0;overflow=hidden;strokeColor=#000000;" vertex="1" parent="245">
                    <mxGeometry x="54" width="177" height="47" as="geometry">
                        <mxRectangle width="177" height="47" as="alternateBounds"/>
                    </mxGeometry>
                </mxCell>
                <mxCell id="248" value="ставка" style="shape=partialRectangle;html=1;whiteSpace=wrap;connectable=0;fillColor=none;top=0;left=0;bottom=0;right=0;overflow=hidden;strokeColor=#000000;" vertex="1" parent="245">
                    <mxGeometry x="231" width="113" height="47" as="geometry">
                        <mxRectangle width="113" height="47" as="alternateBounds"/>
                    </mxGeometry>
                </mxCell>
                <mxCell id="249" value="&lt;span style=&quot;color: rgb(121, 38, 117); font-family: consolas, &amp;quot;lucida console&amp;quot;, &amp;quot;courier new&amp;quot;, monospace; text-align: left;&quot;&gt;cpm&lt;/span&gt;" style="shape=partialRectangle;html=1;whiteSpace=wrap;connectable=0;fillColor=none;top=0;left=0;bottom=0;right=0;overflow=hidden;strokeColor=#000000;" vertex="1" parent="245">
                    <mxGeometry x="344" width="113" height="47" as="geometry">
                        <mxRectangle width="113" height="47" as="alternateBounds"/>
                    </mxGeometry>
                </mxCell>
                <mxCell id="250" value="&lt;div style=&quot;text-align: justify;&quot;&gt;&lt;br&gt;&lt;/div&gt;" style="shape=partialRectangle;html=1;whiteSpace=wrap;connectable=0;fillColor=none;top=0;left=0;bottom=0;right=0;overflow=hidden;strokeColor=#000000;" vertex="1" parent="245">
                    <mxGeometry x="457" width="113" height="47" as="geometry">
                        <mxRectangle width="113" height="47" as="alternateBounds"/>
                    </mxGeometry>
                </mxCell>
                <mxCell id="251" style="shape=tableRow;horizontal=0;startSize=0;swimlaneHead=0;swimlaneBody=0;top=0;left=0;bottom=0;right=0;collapsible=0;dropTarget=0;fillColor=none;points=[[0,0.5],[1,0.5]];portConstraint=eastwest;strokeColor=#000000;" vertex="1" parent="232">
                    <mxGeometry y="173" width="570" height="48" as="geometry"/>
                </mxCell>
                <mxCell id="252" value="3" style="shape=partialRectangle;html=1;whiteSpace=wrap;connectable=0;fillColor=none;top=0;left=0;bottom=0;right=0;overflow=hidden;strokeColor=#000000;" vertex="1" parent="251">
                    <mxGeometry width="54" height="48" as="geometry">
                        <mxRectangle width="54" height="48" as="alternateBounds"/>
                    </mxGeometry>
                </mxCell>
                <mxCell id="253" value="" style="shape=partialRectangle;html=1;whiteSpace=wrap;connectable=0;fillColor=none;top=0;left=0;bottom=0;right=0;overflow=hidden;strokeColor=#000000;" vertex="1" parent="251">
                    <mxGeometry x="54" width="177" height="48" as="geometry">
                        <mxRectangle width="177" height="48" as="alternateBounds"/>
                    </mxGeometry>
                </mxCell>
                <mxCell id="254" value="Артикул" style="shape=partialRectangle;html=1;whiteSpace=wrap;connectable=0;fillColor=none;top=0;left=0;bottom=0;right=0;overflow=hidden;strokeColor=#000000;" vertex="1" parent="251">
                    <mxGeometry x="231" width="113" height="48" as="geometry">
                        <mxRectangle width="113" height="48" as="alternateBounds"/>
                    </mxGeometry>
                </mxCell>
                <mxCell id="255" value="&lt;span style=&quot;color: rgb(121, 38, 117); font-family: consolas, &amp;quot;lucida console&amp;quot;, &amp;quot;courier new&amp;quot;, monospace; text-align: left;&quot;&gt;product_id&lt;/span&gt;" style="shape=partialRectangle;html=1;whiteSpace=wrap;connectable=0;fillColor=none;top=0;left=0;bottom=0;right=0;overflow=hidden;strokeColor=#000000;" vertex="1" parent="251">
                    <mxGeometry x="344" width="113" height="48" as="geometry">
                        <mxRectangle width="113" height="48" as="alternateBounds"/>
                    </mxGeometry>
                </mxCell>
                <mxCell id="256" value="&lt;div style=&quot;text-align: justify;&quot;&gt;&lt;br&gt;&lt;/div&gt;" style="shape=partialRectangle;html=1;whiteSpace=wrap;connectable=0;fillColor=none;top=0;left=0;bottom=0;right=0;overflow=hidden;strokeColor=#000000;" vertex="1" parent="251">
                    <mxGeometry x="457" width="113" height="48" as="geometry">
                        <mxRectangle width="113" height="48" as="alternateBounds"/>
                    </mxGeometry>
                </mxCell>
                <mxCell id="257" style="shape=tableRow;horizontal=0;startSize=0;swimlaneHead=0;swimlaneBody=0;top=0;left=0;bottom=0;right=0;collapsible=0;dropTarget=0;fillColor=none;points=[[0,0.5],[1,0.5]];portConstraint=eastwest;strokeColor=#000000;" vertex="1" parent="232">
                    <mxGeometry y="221" width="570" height="48" as="geometry"/>
                </mxCell>
                <mxCell id="258" style="shape=partialRectangle;html=1;whiteSpace=wrap;connectable=0;fillColor=none;top=0;left=0;bottom=0;right=0;overflow=hidden;strokeColor=#000000;" vertex="1" parent="257">
                    <mxGeometry width="54" height="48" as="geometry">
                        <mxRectangle width="54" height="48" as="alternateBounds"/>
                    </mxGeometry>
                </mxCell>
                <mxCell id="259" style="shape=partialRectangle;html=1;whiteSpace=wrap;connectable=0;fillColor=none;top=0;left=0;bottom=0;right=0;overflow=hidden;strokeColor=#000000;" vertex="1" parent="257">
                    <mxGeometry x="54" width="177" height="48" as="geometry">
                        <mxRectangle width="177" height="48" as="alternateBounds"/>
                    </mxGeometry>
                </mxCell>
                <mxCell id="260" value="Ид предмета" style="shape=partialRectangle;html=1;whiteSpace=wrap;connectable=0;fillColor=none;top=0;left=0;bottom=0;right=0;overflow=hidden;strokeColor=#000000;" vertex="1" parent="257">
                    <mxGeometry x="231" width="113" height="48" as="geometry">
                        <mxRectangle width="113" height="48" as="alternateBounds"/>
                    </mxGeometry>
                </mxCell>
                <mxCell id="261" value="&lt;span style=&quot;color: rgb(121, 38, 117); font-family: consolas, &amp;quot;lucida console&amp;quot;, &amp;quot;courier new&amp;quot;, monospace; text-align: left;&quot;&gt;subject&lt;/span&gt;" style="shape=partialRectangle;html=1;whiteSpace=wrap;connectable=0;fillColor=none;top=0;left=0;bottom=0;right=0;overflow=hidden;strokeColor=#000000;" vertex="1" parent="257">
                    <mxGeometry x="344" width="113" height="48" as="geometry">
                        <mxRectangle width="113" height="48" as="alternateBounds"/>
                    </mxGeometry>
                </mxCell>
                <mxCell id="262" style="shape=partialRectangle;html=1;whiteSpace=wrap;connectable=0;fillColor=none;top=0;left=0;bottom=0;right=0;overflow=hidden;strokeColor=#000000;" vertex="1" parent="257">
                    <mxGeometry x="457" width="113" height="48" as="geometry">
                        <mxRectangle width="113" height="48" as="alternateBounds"/>
                    </mxGeometry>
                </mxCell>
            </root>
        </mxGraphModel>
    </diagram>
</mxfile>